<?xml version="1.0" standalone="no"?>
<!DOCTYPE svg PUBLIC "-//W3C//DTD SVG 1.1//EN" "http://www.w3.org/Graphics/SVG/1.1/DTD/svg11.dtd" >
<svg xmlns="http://www.w3.org/2000/svg">
<metadata></metadata>
<defs>
<font id="onyxregular" horiz-adv-x="575" >
<font-face units-per-em="2048" ascent="1638" descent="-410" />
<missing-glyph horiz-adv-x="288" />
<glyph horiz-adv-x="2048" />
<glyph horiz-adv-x="2048" />
<glyph unicode="&#xd;" horiz-adv-x="2048" />
<glyph unicode=" "  horiz-adv-x="288" />
<glyph unicode="&#x09;" horiz-adv-x="288" />
<glyph unicode="&#xa0;" horiz-adv-x="288" />
<glyph unicode="!" horiz-adv-x="319" d="M31 1363q0 76 34.5 114.5t85.5 38.5q49 0 83.5 -38.5t34.5 -111.5q0 -22 -7 -79l-99 -892q-1 -8 -6 -13l-7 -4q-5 0 -8 4q-4 5 -5 13l-98 892q-8 69 -8 76zM57 101q0 63 26 94.5t63 31.5q39 0 66 -31.5t27 -87.5t-28 -88t-66 -32q-37 0 -62.5 28.5t-25.5 84.5z" />
<glyph unicode="&#x22;" horiz-adv-x="832" d="M133 1394q0 64 26.5 93t71.5 29q44 0 73 -29.5t29 -78.5q0 -39 -26 -181l-54 -295h-43l-55 296q-22 122 -22 166zM498 1395q0 63 28 92t74 29q43 0 71.5 -29t28.5 -78q0 -85 -19 -184l-57 -293h-48l-54 292l-22 121q-2 25 -2 50z" />
<glyph unicode="#" horiz-adv-x="1365" d="M88 356v123h224l77 371h-301v122h326l86 405h123l-86 -405h420l85 405h123l-85 -405h196v-122h-222l-75 -371h297v-123h-322l-86 -402h-123l86 402h-422l-85 -402h-123l85 402h-198zM434 479h422l76 371h-420z" />
<glyph unicode="$" horiz-adv-x="618" d="M39 266q0 86 31 127.5t66 41.5q29 0 51 -27t22 -78q0 -50 -21 -75t-50 -25q-15 0 -57 9q-5 0 -7.5 -3.5t-2.5 -16.5q0 -80 58 -139t157 -63l-1 579q-146 211 -186 311.5t-40 189.5q0 140 75 242q57 76 151 89v88h25v-87q104 0 171.5 -68t67.5 -173q0 -73 -24.5 -103.5 t-61.5 -30.5q-34 0 -57.5 24.5t-23.5 62.5t23.5 63.5t50.5 25.5q10 0 26 -2l13 -2q8 0 11 3.5t3 13.5q0 61 -53.5 110t-145.5 52v-470q126 -196 159 -256q61 -110 86 -191.5t25 -144.5q0 -140 -81 -240.5t-189 -112.5v-212h-24v212q-109 0 -178 75.5t-69 200.5zM172 1255 q0 -60 25 -125.5t88 -160.5v433q-54 -14 -83.5 -52t-29.5 -95zM310 19q69 15 105 60.5t36 122.5q0 63 -24 129.5t-117 222.5v-535z" />
<glyph unicode="%" horiz-adv-x="729" d="M30 -11l582 1477q-107 -61 -195 -61q-52 0 -115 22q31 -92 31 -284q0 -242 -48 -319q-32 -52 -92 -52t-96 54q-50 75 -50 274v158q0 136 52 207q37 51 93 51q54 0 97 -57q47 -30 119 -30q101 0 220 72q25 15 38 15q8 0 12 -3t4 -8t-4 -12l-3 -8l-590 -1496h-55zM156 849 q0 -28 9.5 -40t24.5 -12t24.5 12t9.5 40v594q0 27 -12 41q-9 11 -24 11q-14 0 -23 -11.5t-9 -40.5v-594zM389 305v172q0 138 52 210q40 55 92 55q53 0 91 -54q51 -72 51 -225v-218q0 -131 -55 -205q-38 -52 -91 -52q-39 0 -69 26t-46 89q-25 97 -25 202zM496 69 q0 -30 8.5 -41t24.5 -11q14 0 24 12q13 16 13 40v605q0 17 -12 30q-9 10 -24 10q-14 0 -24 -11t-10 -29v-605z" />
<glyph unicode="&#x26;" horiz-adv-x="874" d="M39 379q0 132 48 242t153 222q-31 114 -47 205.5t-16 161.5q0 147 73 240q55 70 131 70q62 0 109 -60q66 -83 66 -203q0 -76 -32 -147t-116 -166l23 -70q98 -309 209 -572q89 188 89 346q0 31 -6 42q-3 6 -8 6l-11 -6q-30 -23 -66 -23q-41 0 -66.5 28.5t-25.5 83.5 q0 61 28 93t68 32q47 0 76 -40q38 -53 38 -177q0 -218 -101 -420l16 -35q38 -79 62 -102t47 -23q19 0 32 18q17 22 17 72q0 13 3 16.5t10 3.5q8 0 11 -4t3 -21q0 -92 -51.5 -149.5t-118.5 -57.5q-40 0 -70 16.5t-87 78.5q-48 -51 -94.5 -73t-105.5 -22q-121 0 -205.5 100 t-84.5 294zM175 655q0 -100 47 -254q35 -115 87 -223q37 -78 66 -102t57 -24q20 0 36.5 9.5t45.5 41.5q-74 138 -126 269.5t-117 358.5l-24 81q-36 -30 -54 -69.5t-18 -87.5zM327 1385q0 -51 15 -139.5t45 -214.5l14 -56q48 49 70 110t22 182q0 135 -35 187q-26 38 -67 38 q-28 0 -46 -23t-18 -84z" />
<glyph unicode="'" horiz-adv-x="363" d="M81 1394q0 64 26 93t71 29t74.5 -29.5t29.5 -77.5q0 -37 -26 -181l-54 -296h-44l-54 296q-23 123 -23 166z" />
<glyph unicode="(" horiz-adv-x="391" d="M32 572v398q0 299 101 444q72 102 173 102q13 0 18 -3.5t5 -8.5t-4 -8.5t-16 -4.5q-36 -3 -54.5 -16.5t-27.5 -39.5q-13 -40 -13 -71v-1206q0 -82 22 -110t73 -33q11 -1 15 -4.5t4 -9.5q0 -5 -5 -9t-15 -4q-53 0 -102.5 29t-85.5 92q-27 47 -57.5 163t-30.5 300z" />
<glyph unicode=")" horiz-adv-x="393" d="M39 1l4 7q5 4 20 5q35 3 53.5 20t29.5 59t11 78v1166q0 90 -22.5 120.5t-75.5 35.5q-10 1 -13.5 4t-3.5 8t4.5 8.5t15.5 3.5q47 0 89.5 -20.5t76.5 -65t53 -106.5q33 -100 45.5 -190t12.5 -213v-349q0 -325 -104 -480q-70 -104 -170 -104q-15 0 -21 5q-5 3 -5 8z" />
<glyph unicode="*" horiz-adv-x="512" d="M32 1187q0 17 13 29t61 22q66 15 110 44q-44 25 -110 39q-48 10 -60.5 21.5t-12.5 30.5t11 31t27 12q18 0 32.5 -9t42.5 -41t44.5 -44t41.5 -21q1 10 1 15q0 36 -17 93q-12 41 -12 60q0 22 11 34.5t29 12.5q16 0 27.5 -13t11.5 -35q0 -16 -9 -49q-20 -74 -20 -107v-11 q42 22 87.5 68.5t72.5 46.5q17 0 28 -11.5t11 -30.5t-13 -31t-63 -22q-67 -13 -111 -39q51 -29 117 -43q46 -10 58 -21.5t12 -28.5q0 -19 -11 -30t-27 -11q-30 0 -76 47.5t-85 63.5v-17q0 -37 14.5 -82.5t14.5 -68.5t-10 -33.5t-28 -10.5q-20 0 -31 11t-11 33q0 14 7 38 q22 76 22 121v9q-39 -14 -86 -64t-73 -50q-16 0 -28.5 12.5t-12.5 29.5z" />
<glyph unicode="+" horiz-adv-x="960" d="M99 709v93h335v334h92v-334h334v-93h-334v-334h-92v334h-335z" />
<glyph unicode="," horiz-adv-x="276" d="M43 90q0 60 29 95.5t64 35.5q38 0 68.5 -38t30.5 -106q0 -146 -104 -294q-54 -76 -72 -76l-10 11q0 5 15 25q57 70 77 118.5t23 117.5q-18 -3 -33 -3q-35 0 -61.5 30t-26.5 84z" />
<glyph unicode="-" horiz-adv-x="362" d="M55 464v143h253v-143h-253z" />
<glyph unicode="." horiz-adv-x="276" d="M38 104q0 62 26.5 93t65.5 31q37 0 63 -29.5t26 -84.5q0 -60 -28.5 -93t-63.5 -33q-32 0 -60.5 31.5t-28.5 84.5z" />
<glyph unicode="/" horiz-adv-x="456" d="M20 -12l362 1529h50l-360 -1529h-52z" />
<glyph unicode="0" d="M35 480v534q0 285 89 412q63 90 162 90q125 0 190.5 -135t65.5 -377v-524q0 -273 -90 -401q-65 -91 -166 -91q-57 0 -100 29t-75 84q-20 33 -40 107q-36 127 -36 272zM231 121q0 -67 15.5 -88t43.5 -21q26 0 37 17q16 23 16 92v1301q0 30 -22 55q-14 17 -39 17 q-23 0 -37 -17t-14 -55v-1301z" />
<glyph unicode="1" horiz-adv-x="438" d="M27 14q0 6 11 14h87v1311q-65 -40 -88 -40l-6 3q-3 5 -3 12q0 5 17 12q122 52 154 153q5 15 10.5 20t13.5 5h72q7 0 13 -7q9 -13 9 -28v-1441h64q7 0 11.5 -4t4.5 -10t-4 -9q-5 -5 -12 -5h-343l-7 3q-4 4 -4 11z" />
<glyph unicode="2" d="M25 0v46q0 75 16 167q12 68 36.5 118.5t122 182.5t113.5 183q23 68 23 225v429q0 84 -17.5 108.5t-50.5 24.5q-71 0 -131 -78q-84 -110 -84 -264q0 -18 4 -24q2 -4 8 -4q8 0 27 13q34 22 62 22q40 0 71 -38.5t31 -113.5q0 -72 -30.5 -108t-75.5 -36q-50 0 -82 45 q-43 59 -43 191q0 173 70 300t199 127q96 0 168.5 -95.5t72.5 -314.5q0 -176 -39 -273.5t-154.5 -215t-163.5 -179.5t-79 -136q-19 -45 -32 -124h432l13 271q1 6 9 12l7 -3l3 -9l-19 -449h-487z" />
<glyph unicode="3" d="M36 313q0 114 42 170q32 42 80 42q41 0 70 -35.5t29 -106.5q0 -74 -32 -112t-75 -38q-26 0 -55 16q-18 10 -24 10q-6 -5 -6 -11q0 -100 57.5 -167t120.5 -67q39 0 62 23q28 30 28 66v559q0 76 -23.5 106t-61.5 30q-20 0 -43 -11q-16 -8 -21 -8t-11 2l-57 20l-7 6l7 7 l57 29l8 2q9 0 33 -9.5t41 -9.5q30 0 45 17q24 27 24 60v525q0 34 -15 50t-43 16q-70 0 -129.5 -64t-59.5 -149q0 -8 10 -15q5 0 33 14.5t51 14.5q37 0 63.5 -31.5t26.5 -91.5q0 -59 -29 -91.5t-73 -32.5t-75 39.5t-31 132.5q0 148 63.5 222t158.5 74q99 0 170.5 -86.5 t71.5 -253.5q0 -154 -55 -237.5t-169 -124.5q119 -35 167 -96q77 -99 77 -298q0 -221 -86 -326.5t-195 -105.5q-87 0 -153.5 82.5t-66.5 242.5z" />
<glyph unicode="4" d="M48 423l313 1065q3 9 7 12.5t11 3.5h59q9 0 14 -4.5t5 -11.5v-1042h106q7 0 10.5 -3.5t3.5 -7.5q0 -5 -3 -8q-5 -4 -11 -4h-106v-397h62q6 0 9.5 -3.5t3.5 -9.5t-4 -9.5t-9 -3.5h-316q-7 1 -10 4.5t-3 8.5q0 6 3 9.5t10 3.5h69v397h-224zM85 446h187v634z" />
<glyph unicode="5" d="M44 290q0 103 33 146.5t77 43.5q41 0 73 -39.5t32 -112.5q0 -79 -33.5 -120t-76.5 -41q-19 0 -40 6l-9 1l-4 -2q-3 -4 -3 -11q0 -55 45.5 -99.5t106.5 -44.5q43 0 65 26q30 36 30 98v768q0 70 -22 100q-16 22 -44 22q-56 0 -106 -68q-72 -101 -81 -295q0 -8 -11 -16 q-5 0 -8 4q-4 5 -4 12l23 836h398v39q8 10 15 10q6 0 13 -10l-12 -201q0 -6 -4 -9t-12 -3h-372l-12 -443q51 103 93.5 138t101.5 35q112 0 176 -124.5t64 -429.5q0 -267 -58 -376q-76 -142 -216 -142q-90 0 -154 77t-64 225z" />
<glyph unicode="6" d="M42 490v529q0 277 90 404q67 94 170 94q77 0 141.5 -76t64.5 -194q0 -81 -31.5 -121t-71.5 -40q-43 0 -74.5 38.5t-31.5 109.5q0 72 29.5 107t70.5 35q7 0 19 -2q7 -2 12 -2q9 0 12 3t3 9q0 33 -44.5 73.5t-91.5 40.5q-31 0 -50 -20.5t-19 -54.5v-603q36 51 62.5 67.5 t61.5 16.5q78 0 127 -95t49 -250v-167q0 -199 -90 -315q-68 -89 -160 -89q-94 0 -158 92q-90 130 -90 410zM240 90q0 -38 17 -59q12 -16 33 -16q22 0 36.5 18t14.5 57v691q0 38 -11 54q-9 12 -22 12q-29 0 -48.5 -39t-19.5 -76v-642z" />
<glyph unicode="7" d="M35 1103v401h491v-139q0 -52 -15 -120t-70 -233q-70 -207 -93 -325.5t-23 -242.5q0 -69 4 -144.5t4 -90.5q0 -118 -44 -178q-33 -43 -83 -43q-52 0 -88 44.5t-36 139.5q0 111 34.5 219t159.5 338q107 196 154.5 334.5t61.5 269.5h-433v-230q0 -6 -3 -9.5t-9 -3.5 q-5 0 -8.5 3.5t-3.5 9.5z" />
<glyph unicode="8" d="M44 280q0 91 35.5 190t137.5 262l-78 214q-33 95 -45.5 158.5t-12.5 119.5q0 138 66.5 215t155.5 77q85 0 144.5 -70t59.5 -201q0 -76 -26 -154t-105 -214q18 -53 43 -114q77 -188 100 -276.5t23 -166.5q0 -160 -76 -246t-189 -86q-102 0 -167.5 74.5t-65.5 217.5z M124 292q0 -155 51 -229q37 -52 90 -52q45 0 75 38t30 124t-30.5 203.5t-113.5 322.5q-46 -77 -65 -144q-37 -125 -37 -263zM217 1378q0 -135 144 -473q80 148 80 353q0 133 -37 183t-93 50q-42 0 -68 -28.5t-26 -84.5z" />
<glyph unicode="9" d="M38 1020q0 244 66 370t186 126q119 0 183 -133.5t64 -352.5v-534q0 -284 -93 -417q-65 -91 -171 -91q-79 0 -134 65q-72 85 -72 205q0 81 33 123t72 42q42 0 73 -38t31 -110q0 -70 -30.5 -106t-71.5 -36q-11 0 -25 3q-8 2 -11 2q-4 0 -6 -3q-3 -3 -3 -9q0 -34 43.5 -74 t95.5 -40q36 0 54 20.5t18 68.5v595q-3 -3 -7 -10q-46 -81 -116 -81q-68 0 -116 72q-63 95 -63 343zM236 748q0 -61 8.5 -75t23.5 -14q20 0 39 27q33 46 33 99v643q0 26 -20 50q-12 14 -34 14t-36 -16.5t-14 -47.5v-680z" />
<glyph unicode=":" horiz-adv-x="276" d="M38 104q0 62 26.5 93t65.5 31q37 0 63 -29.5t26 -84.5q0 -60 -28.5 -93t-63.5 -33q-32 0 -60.5 31.5t-28.5 84.5zM39 949q0 62 26.5 93t65.5 31q37 0 63 -29.5t26 -84.5q0 -60 -28.5 -93t-63.5 -33q-32 0 -60.5 31.5t-28.5 84.5z" />
<glyph unicode=";" horiz-adv-x="276" d="M31 90q0 60 29 95.5t64 35.5q38 0 68.5 -38t30.5 -106q0 -146 -104 -294q-54 -76 -72 -76l-10 11q0 5 15 25q57 70 77 118.5t23 117.5q-18 -3 -33 -3q-35 0 -61.5 30t-26.5 84zM40 949q0 62 26.5 93t65.5 31q37 0 63 -29.5t26 -84.5q0 -60 -28.5 -93t-63.5 -33 q-32 0 -60.5 31.5t-28.5 84.5z" />
<glyph unicode="&#x3c;" horiz-adv-x="960" d="M99 716l1 82l760 320v-100l-637 -261l637 -262v-100z" />
<glyph unicode="=" horiz-adv-x="960" d="M99 548v92h761v-92h-761zM99 870v92h761v-92h-761z" />
<glyph unicode="&#x3e;" horiz-adv-x="960" d="M99 395v100l637 262l-637 261v100l761 -321v-82z" />
<glyph unicode="?" horiz-adv-x="532" d="M27 1164q0 173 71.5 263t162.5 90q96 0 161 -75t65 -228q0 -104 -20 -170q-14 -46 -44 -90q-21 -31 -120 -146q-138 -160 -138 -283q0 -52 33.5 -88t76.5 -36q45 0 74.5 33t29.5 92q0 49 -29 106q-7 12 -7 17l9 10q12 0 25 -23q27 -45 27 -107q0 -72 -36.5 -112 t-91.5 -40t-95.5 44t-40.5 111q0 40 12.5 80.5t62 140t69 173.5t19.5 154v296q0 65 -20 90.5t-51 25.5q-57 0 -106 -63q-67 -86 -67 -204q0 -26 5 -36q3 -5 8 -5q6 0 22 13q27 23 50 23q31 0 59.5 -36.5t28.5 -103.5q0 -66 -25.5 -98t-60.5 -32q-45 0 -77 43q-42 58 -42 171 zM141 106q0 58 26 88.5t63 30.5q39 0 64.5 -29t25.5 -86q0 -63 -25 -92.5t-64 -29.5t-64.5 30t-25.5 88z" />
<glyph unicode="@" horiz-adv-x="1877" d="M208 684q0 224 107.5 420.5t301.5 304.5t410 108q186 0 331 -73t221 -214t76 -305q0 -170 -76.5 -322.5t-189 -220t-231.5 -67.5q-77 0 -116 36t-39 95q0 29 18 128q-112 -157 -183 -208.5t-138 -51.5q-73 0 -111 60.5t-38 134.5q0 147 81.5 304t212.5 252q96 70 172 70 q49 0 84 -31t47 -97l29 99l174 14l-130 -444q-53 -182 -53 -231q0 -28 19 -48t47 -20q62 0 153.5 66.5t154.5 200t63 280.5q0 154 -71 280.5t-199.5 194.5t-288.5 68q-193 0 -368 -101.5t-279.5 -298.5t-104.5 -415q0 -299 191 -491t486 -192q236 0 424 127t278 351h52 q-90 -245 -292.5 -386.5t-462.5 -141.5q-331 0 -546.5 216t-215.5 549zM730 547q0 -47 23.5 -74t50.5 -27q32 0 79.5 33.5t102 111.5t81.5 155q46 127 46 211q0 63 -25.5 94.5t-59.5 31.5q-47 0 -101 -59q-80 -89 -146 -264q-51 -133 -51 -213z" />
<glyph unicode="A" horiz-adv-x="627" d="M1 13q0 6 3 10l12 4q29 4 45 26q24 35 34 116l168 1314h111l178 -1457h45q11 -7 11 -13t-11 -13h-301q-5 0 -8 3.5t-3 9.5t3 9.5t8 3.5h48l-26 284h-181l-22 -161q-1 -13 -1 -27q0 -44 16.5 -66.5t45.5 -27.5l16 -5q4 -4 4 -10t-3.5 -9.5t-8.5 -3.5h-171q-5 0 -8.5 3.5 t-3.5 9.5zM140 336h175l-77 774z" />
<glyph unicode="B" horiz-adv-x="666" d="M0 13q0 6 11 13h66v1453h-66q-11 7 -11 13q0 5 11 12h295q136 0 222.5 -94t86.5 -264q0 -104 -29.5 -179.5t-91.5 -126.5q-39 -32 -118 -61q82 -30 121 -61q62 -51 94 -123.5t32 -178.5q0 -137 -47 -243q-32 -74 -105 -123.5t-175 -49.5h-285q-11 7 -11 13zM283 26h32 q42 0 67 24t25 65v581q0 37 -14.5 53t-45.5 16h-64v-739zM283 791h53q36 0 53.5 18t17.5 60v522q0 51 -18 69.5t-70 18.5h-36v-688z" />
<glyph unicode="C" d="M34 652v172q0 200 34.5 379.5t112.5 261.5q53 55 120 55q80 0 144 -110l80 105h11v-593q0 -7 -4 -11.5t-10 -4.5t-10 4q-4 5 -4 12v53q0 126 -29 253q-37 166 -102 236q-25 27 -65 27q-27 0 -43 -21q-21 -26 -21 -80v-1284q0 -48 18.5 -69.5t49.5 -21.5q40 0 82 35.5 t64 95.5q46 122 46 273v165q0 10 4 15t10 5q5 0 8 -4q6 -7 6 -16v-165q0 -233 -86 -350q-61 -84 -154 -84q-69 0 -120 43.5t-83 148.5q-59 197 -59 475z" />
<glyph unicode="D" horiz-adv-x="666" d="M0 13q0 7 3.5 10.5t10.5 3.5h63v1452h-63q-7 0 -10.5 3.5t-3.5 9.5q0 5 3.5 8.5t10.5 3.5h259q119 0 194 -54t110 -173q46 -159 46 -339v-371q0 -187 -45 -338q-26 -85 -66 -132.5t-97 -72t-142 -24.5h-259q-7 0 -10.5 3.5t-3.5 9.5zM284 27h23q61 0 80 21.5t19 110.5 v1209q0 65 -18.5 88t-56.5 23h-47v-1452z" />
<glyph unicode="E" horiz-adv-x="623" d="M5 13q0 6 4 9.5t11 3.5h64v1453h-64q-10 7 -10 12q0 7 10 13h568v-557q-6 -10 -12 -10t-8.5 3.5t-3.5 28.5q-7 166 -52 309t-87 181q-22 20 -74 20h-62v-704q57 6 93 60q48 73 48 224v78q0 5 3.5 8.5t8.5 3.5t8 -3.5t3 -8.5v-743q0 -5 -3 -8.5t-8 -3.5t-8.5 3.5t-3.5 8.5 v72q0 148 -54 235q-32 50 -67 50q-9 0 -14 -6q-6 -7 -6 -22v-697h32q41 0 81 30.5t75 106t54 164.5q31 144 31 225v66q7 11 13 11t9.5 -3t3.5 -8v-618h-568q-7 0 -11 4t-4 9z" />
<glyph unicode="F" horiz-adv-x="623" d="M13 13q0 6 4 9.5t11 3.5h62v1453h-62q-11 7 -11 12q0 7 11 13h552v-556q0 -5 -3 -8t-8 -3q-6 0 -9 4t-4 31q-5 124 -42 265.5t-70 192.5q-17 26 -41 37.5t-74 11.5h-34v-704q47 4 80 57q50 81 50 251v55q0 6 3 9t8 3t8 -3.5t3 -8.5v-750q0 -6 -3 -9t-8 -3l-7 3q-4 4 -4 9 v89q0 145 -49 221q-32 49 -81 51v-723h63q5 0 8 -3.5t3 -9.5t-3 -9.5t-8 -3.5h-330q-7 0 -11 4t-4 9z" />
<glyph unicode="G" horiz-adv-x="645" d="M31 552v372q0 267 75 431.5t195 164.5q87 0 144 -112l66 93q8 12 16 12q3 0 5 -2t2 -7v-597q0 -5 -3.5 -8t-8.5 -3q-7 0 -9 4q-2 3 -6 53q-34 363 -102 476q-39 63 -92 63q-29 0 -49 -26t-20 -93v-1293q0 -32 18 -50.5t45 -18.5q29 0 46 21q23 30 23 81v558h-52 q-5 0 -8.5 3.5t-3.5 8.5q0 6 3.5 9.5t8.5 3.5h291q5 0 8 -3.5t3 -9.5q0 -5 -3 -8.5t-8 -3.5h-45v-671q0 -8 -3 -12q-2 -3 -6 -3t-7.5 3t-7.5 12l-57 141q-58 -99 -95.5 -127.5t-86.5 -28.5q-136 0 -206 153t-70 414z" />
<glyph unicode="H" horiz-adv-x="733" d="M16 13q0 6 11 13h66v1453h-66q-11 7 -11 13q0 5 11 12h304q11 -7 11 -12q0 -6 -11 -13h-32v-684h127v684h-42q-11 7 -11 13t11 12h309q11 -7 11 -12q0 -6 -11 -13h-60v-1453h60q5 0 9 -3.5t4 -9.5t-4 -9.5t-9 -3.5h-299q-5 0 -8.5 3.5t-3.5 9.5t3.5 9.5t8.5 3.5h32v745 h-127v-745h39q5 0 8.5 -3.5t3.5 -9.5t-3.5 -9.5t-8.5 -3.5h-311q-11 7 -11 13z" />
<glyph unicode="I" horiz-adv-x="393" d="M1 13q0 6 11 13h68v1453h-60q-5 0 -8 3.5t-3 8.5q0 6 3 9.5t8 3.5h325q5 0 8.5 -3.5t3.5 -8.5q0 -6 -3.5 -9.5t-8.5 -3.5h-60v-1453h60q10 -7 10 -13q0 -7 -10 -13h-333q-11 7 -11 13z" />
<glyph unicode="J" horiz-adv-x="623" d="M23 236q0 99 34.5 143t79.5 44q37 0 65 -34t28 -98q0 -61 -26.5 -92.5t-62.5 -31.5q-14 0 -33.5 6t-29.5 6q-7 0 -11 -5q-6 -7 -6 -19q0 -49 48 -95.5t100 -46.5q43 0 68 31q34 43 34 119v1316h-66q-5 0 -8 3.5t-3 8.5q0 6 11 13h328q5 0 8.5 -3.5t3.5 -8.5 q0 -6 -3.5 -9.5t-8.5 -3.5h-54v-1228q0 -118 -73.5 -192t-189.5 -74q-103 0 -168 67.5t-65 183.5z" />
<glyph unicode="K" horiz-adv-x="776" d="M21 1491q0 6 3.5 9.5t9.5 3.5h329q10 -7 10 -13t-10 -13h-63v-729l228 555q21 50 21 91q0 34 -13 54t-37 27l-38 3q-7 4 -7 12q0 6 3.5 9.5t8.5 3.5h246q5 0 8.5 -3.5t3.5 -9.5q0 -8 -6 -11l-48 -5q-35 -11 -60.5 -49t-72.5 -154l-102 -248l262 -998h45q5 0 8.5 -3.5 t3.5 -9.5t-3.5 -9.5t-8.5 -3.5h-318q-9 7 -9 13q0 7 9 13h65l-189 696v-696h63q6 0 9.5 -3.5t3.5 -9.5t-3.5 -9.5t-9.5 -3.5h-329l-4 2q-3 4 -3 11t7 13h60v1452h-60q-6 0 -9.5 3.5t-3.5 9.5z" />
<glyph unicode="L" horiz-adv-x="623" d="M6 13q0 6 3.5 9.5t8.5 3.5h62v1453h-62q-11 7 -11 12q0 6 11 13h333q5 0 8.5 -3.5t3.5 -8.5q0 -6 -3.5 -9.5t-8.5 -3.5h-66v-1453h42q45 0 79 25.5t66 105.5q47 118 68.5 257.5t22.5 178.5q1 14 4 18l8 3l8 -3q4 -4 4 -9l-8 -602h-561q-5 0 -8.5 3.5t-3.5 9.5z" />
<glyph unicode="M" horiz-adv-x="840" d="M10 11q0 5 2.5 7.5t17.5 8.5q31 12 42 31q15 26 15 74v1347h-59q-5 0 -8.5 3.5t-3.5 8.5q0 6 3.5 9.5t8.5 3.5h271l96 -917l123 917h272q6 0 10 -3.5t4 -8.5q0 -6 -4 -9.5t-10 -3.5h-65v-1453h65q3 0 4 -2q3 -5 3 -12q0 -6 -2 -9t-5 -3h-329q-4 0 -7.5 3.5t-3.5 9.5 t3.5 9.5t7.5 3.5h69v1388l-176 -1379q-4 -27 -7 -31t-9 -4h-65q-6 0 -9 4t-6 31l-144 1365v-1268q0 -52 10.5 -73t36.5 -30l45 -4q5 -3 5 -12q0 -8 -2.5 -10.5t-12.5 -2.5h-177q-4 0 -6.5 3t-2.5 8z" />
<glyph unicode="N" horiz-adv-x="633" d="M21 11q0 5 2.5 7.5t17.5 8.5q31 12 42.5 31t14.5 74v1347h-56q-5 0 -8.5 3.5t-3.5 9.5q0 5 3.5 8.5t8.5 3.5h259l202 -1099v977q0 46 -12 66t-37 28l-43 4q-5 2 -5 11q0 8 2.5 11t12.5 3h177q4 0 6.5 -3.5t2.5 -8.5t-2.5 -7.5t-17.5 -8.5q-31 -12 -43 -31.5t-15 -72.5 v-1373h-155l-249 1370v-1241q0 -51 11 -71.5t36 -28.5l45 -4q5 -3 5 -12q0 -8 -2.5 -10.5t-12.5 -2.5h-177q-4 0 -6.5 3t-2.5 8z" />
<glyph unicode="O" horiz-adv-x="641" d="M42 539v432q0 302 101 448q70 101 173 101q50 0 92 -22.5t75 -66t59.5 -115t37.5 -148.5q18 -131 18 -246v-369q0 -319 -101 -466q-70 -102 -175 -102q-71 0 -131 51t-94 150q-55 159 -55 353zM253 149q0 -78 24 -113q18 -25 44 -25q25 0 44 22.5t19 64.5v1282 q0 54 -25 86q-17 23 -43 23q-23 0 -40 -22q-23 -30 -23 -87v-1231z" />
<glyph unicode="P" horiz-adv-x="666" d="M9 13q0 6 3.5 9.5t8.5 3.5h64v1453h-64q-5 0 -8.5 3.5t-3.5 8.5q0 6 3.5 9.5t8.5 3.5h297q70 0 135 -34q46 -25 86.5 -77.5t60.5 -104.5q27 -71 27 -164v-105q0 -111 -41 -193.5t-110.5 -130t-146.5 -47.5h-36v-622h60q5 0 8.5 -3.5t3.5 -9.5t-3.5 -9.5t-8.5 -3.5h-332 q-5 0 -8.5 3.5t-3.5 9.5zM293 673h37q38 0 62 24.5t24 68.5v613q0 51 -23 79q-17 21 -49 21h-51v-806z" />
<glyph unicode="Q" horiz-adv-x="641" d="M35 544v432q0 298 101 443q71 101 178 101q111 0 179 -101q98 -145 98 -492v-370q0 -147 -21 -253.5t-58 -178.5q-17 -34 -59 -80q44 -59 81 -159q13 -35 24 -48.5t29 -19.5l11 -5l2 -5q0 -6 -12 -12q-31 -17 -79 -17q-64 0 -104.5 43.5t-57.5 169.5q-18 -3 -35 -3 q-61 0 -107.5 31.5t-83.5 96.5q-28 48 -57 156t-29 271zM251 84q1 -37 18.5 -55t43.5 -18q14 0 34 9q-11 40 -26.5 54t-39.5 14q-12 0 -30 -4zM251 103q38 27 69 27q21 0 48 -9l8 -3v1282q0 50 -19 75q-15 19 -41 19q-27 0 -43 -22q-22 -30 -22 -90v-1279z" />
<glyph unicode="R" horiz-adv-x="772" d="M9 13q0 6 4 9.5t10 3.5h59v1453h-59q-11 6 -11 13q0 6 11 12h315q117 0 203 -99.5t86 -271.5q0 -99 -33 -176t-98 -127q-39 -30 -121 -58q92 -27 128 -52q61 -42 90.5 -101t29.5 -153v-366q0 -25 8 -35t21 -10q20 0 36 25q26 40 33 144q1 18 5.5 24t9.5 6q6 0 10 -7 q5 -8 5 -30q0 -111 -53.5 -171.5t-134.5 -60.5q-72 0 -109 37t-37 105v529q0 68 -34 91q-20 13 -94 13v-734h49q8 0 12.5 -4t4.5 -9t-4.5 -9t-12.5 -4h-315q-6 0 -10 3.5t-4 9.5zM289 787h49q35 0 57 24t22 70v519q0 45 -16 62t-63 17h-49v-692z" />
<glyph unicode="S" horiz-adv-x="598" d="M33 1207q0 147 69.5 230t158.5 83q76 0 137 -81q50 27 97 67q16 14 21 14q2 0 4 -2q2 -4 2 -14v-543q0 -11 -5 -18q-3 -4 -8 -4q-6 0 -9 5t-12 72q-41 311 -109 412q-40 58 -91 58q-38 0 -66 -34t-28 -100q0 -119 136 -391l88 -177q91 -183 121 -290.5t30 -192.5 q0 -148 -73 -232t-171 -84q-106 0 -169 102q-34 -24 -69.5 -59.5t-43.5 -35.5q-3 0 -5 3t-2 13v628q0 4 2.5 6.5t5.5 2.5q5 0 9 -6q7 -9 7 -20v-43q0 -125 39 -285t102 -228q31 -34 72 -34q47 0 82 44.5t35 134.5q0 86 -32 182q-42 128 -186 410q-90 176 -114.5 254.5 t-24.5 152.5z" />
<glyph unicode="T" horiz-adv-x="705" d="M23 870v634h650v-634q0 -7 -4 -11.5t-10 -4.5q-5 0 -9 4.5t-4 11.5v39q0 57 -28.5 212.5t-65.5 261.5q-24 68 -39.5 82t-29.5 14h-32v-1453h78q11 -7 11 -13t-11 -13h-371q-5 0 -8 3.5t-3 9.5t3 9.5t8 3.5h87v1453h-21q-22 0 -38 -14q-24 -21 -47 -93 q-37 -115 -63 -275.5t-26 -203.5v-23q0 -8 -4 -12.5t-9 -4.5q-6 0 -9 4q-5 6 -5 13z" />
<glyph unicode="U" horiz-adv-x="678" d="M23 1491q0 6 11 13h321q5 0 8 -3.5t3 -8.5q0 -7 -3 -10.5t-8 -3.5h-56v-1376q0 -42 23 -65t62 -23q71 0 117.5 56.5t46.5 178.5v1101q0 75 -12.5 95.5t-47.5 28.5q-18 4 -23.5 9.5t-5.5 11.5l2 7l8 2h158q6 0 15 -11q0 -5 -4.5 -9t-15.5 -6q-20 -3 -31 -23 q-19 -32 -19 -105v-1129q0 -116 -59.5 -176t-171.5 -60q-141 0 -204 72q-44 51 -44 192v1229h-59q-11 8 -11 13z" />
<glyph unicode="V" horiz-adv-x="584" d="M2 1491q0 6 3.5 9.5t8.5 3.5h319q5 0 8.5 -3.5t3.5 -9.5t-3 -9.5t-9 -3.5h-61l87 -1107l118 1006q2 14 2 28q0 33 -9 50t-26 21l-32 3q-6 4 -6 12q0 6 11 13h151q5 0 8 -3t3 -8t-2.5 -8t-8.5 -4q-24 -3 -37 -21q-21 -31 -29 -103l-151 -1265q-9 -78 -13 -85t-15 -7h-96 q-8 0 -12 8t-15 115l-135 1355h-51q-5 0 -8.5 3.5t-3.5 9.5z" />
<glyph unicode="W" horiz-adv-x="989" d="M9 1491q0 6 11 13h310q5 0 8 -3.5t3 -9.5t-3 -9.5t-8 -3.5h-54l94 -1010l96 919l-9 91h-50q-5 0 -8.5 3.5t-3.5 9.5t3.5 9.5t8.5 3.5h314q11 -7 11 -13t-11 -13h-57l95 -1010l98 897q1 15 1 27q0 35 -10 56t-29 28l-30 4q-6 3 -6 11q0 6 11 13h166q11 -7 11 -13 q0 -5 -2.5 -8.5t-8.5 -4.5q-26 -3 -46 -30q-28 -36 -34 -93l-133 -1245q-10 -88 -18 -101q-5 -9 -18 -9h-72q-15 0 -23 12l-12 111l-126 1147l-120 -1160q-10 -95 -14 -100q-6 -10 -25 -10h-72q-12 0 -17 9q-4 6 -13 89l-149 1380h-48q-11 7 -11 13z" />
<glyph unicode="X" horiz-adv-x="733" d="M1 13q0 6 2.5 9t8.5 4q83 15 123 146l151 499l-208 807h-47q-5 0 -8.5 3.5t-3.5 9.5t3.5 9.5t8.5 3.5h335q5 0 8.5 -3.5t3.5 -9.5t-3.5 -9.5t-8.5 -3.5h-80l137 -536l123 396q10 34 10 62q0 35 -11.5 52.5t-36.5 22.5l-46 4q-6 3 -6 12q0 6 11 13h225q11 -7 11 -13 q0 -8 -5 -11l-31 -3q-24 -7 -47.5 -33.5t-34.5 -59.5l-151 -486l222 -872h46q11 -7 11 -13t-3 -9.5t-8 -3.5h-320q-5 0 -8.5 3.5t-3.5 9.5t3.5 9.5t8.5 3.5h69l-152 598l-141 -461q-9 -29 -9 -62q0 -31 19 -49q28 -26 54 -26h26q5 0 8.5 -3.5t3.5 -9.5t-3.5 -9.5t-8.5 -3.5 h-236q-11 7 -11 13z" />
<glyph unicode="Y" horiz-adv-x="657" d="M1 1491q0 7 3 10t8 3h325q11 -7 11 -12q0 -7 -11 -14h-80l155 -683l116 532q7 30 7 56q0 38 -12 61.5t-33 31.5l-33 4q-6 3 -6 11q0 7 11 13h162q11 0 15 -2l3 -5q0 -7 -12 -15q-50 -29 -69 -115l-138 -621v-720h79q5 0 8.5 -3.5t3.5 -9.5t-3.5 -9.5t-8.5 -3.5h-369 q-5 0 -8 3.5t-3 9.5t3 9.5t8 3.5h83v720l-164 732h-40q-5 0 -8 3.5t-3 9.5z" />
<glyph unicode="Z" horiz-adv-x="618" d="M13 0l359 1479h-82q-47 0 -77 -30q-44 -41 -75.5 -178.5t-53.5 -307.5l-1 -7l-2 -22q-3 -5 -10 -5q-6 0 -12 9v566h522l-357 -1478h94q59 0 108.5 57t89.5 225.5t42 278.5l2 12l10 3q6 0 11 -7l-10 -595h-558z" />
<glyph unicode="[" horiz-adv-x="410" d="M61 0v1504h282q5 0 8 -3t3 -8q0 -6 -3 -9.5t-8 -3.5h-103v-1451h103l6 -3q3 -4 3 -10q0 -9 -9 -16h-282z" />
<glyph unicode="\" horiz-adv-x="456" d="M20 1517h51l361 -1529h-52z" />
<glyph unicode="]" horiz-adv-x="410" d="M28 14q0 7 4 11t9 4h108v1451h-108q-6 6 -6 12q0 7 6 12h287v-1504h-287q-5 0 -9 4t-4 10z" />
<glyph unicode="^" horiz-adv-x="1190" d="M147 666l411 718h82l404 -718h-159l-295 512l-290 -512h-153z" />
<glyph unicode="_" horiz-adv-x="1024" d="M-17 -358h1059v-84h-1059v84z" />
<glyph unicode="`" horiz-adv-x="682" d="M189 1475h201l10 -320q1 -9 -3 -14t-10 -5q-13 0 -20 14z" />
<glyph unicode="a" d="M25 95v377q0 61 26.5 90t156.5 72q58 20 97 40v288q0 45 -23.5 70t-61.5 25q-88 0 -131 -90q14 5 27 7.5t24 2.5q40 0 67.5 -29t27.5 -76q0 -48 -28 -77t-75 -29t-74 29.5t-27 87.5q0 86 65 144t185 58q108 0 155.5 -40.5t47.5 -103.5v-864q0 -15 8 -24.5t17 -9.5 q25 0 51 53q7 16 14 16l12 -11q0 -35 -45 -74t-108 -39q-54 0 -83.5 25t-44.5 88q-46 -68 -80.5 -90.5t-81.5 -22.5q-57 0 -87.5 29.5t-30.5 77.5zM204 90q0 -21 7.5 -31t18.5 -10q16 0 36 34q39 63 39 152v408q-64 -25 -82.5 -50t-18.5 -80v-423z" />
<glyph unicode="b" horiz-adv-x="580" d="M15 1491q0 7 3 10t7 3h219v-494q42 75 103 75q37 0 74 -32.5t59 -93.5q46 -130 46 -308v-210q0 -255 -79 -373q-55 -80 -134 -80q-46 0 -78 31.5t-66 149.5q-35 -84 -81 -162q-11 -19 -17 -19q-3 0 -5 3q-3 4 -3 17v1471h-38q-4 0 -7 3t-3 9zM244 60q0 -14 17 -31 q11 -12 30 -12q23 0 36 19q18 27 18 93v855q0 29 -11 42q-8 11 -24 11q-25 0 -41 -25q-25 -38 -25 -134v-818z" />
<glyph unicode="c" horiz-adv-x="512" d="M47 434v191q0 260 80 379q55 81 136 81q70 0 116 -81q30 24 53 52.5t31 28.5l5 -2l2 -10v-428q0 -7 -4 -11t-9 -4q-7 0 -10 5q-2 4 -6 49q-6 75 -39 190.5t-65.5 151t-69.5 35.5q-24 0 -34 -12.5t-10 -53.5v-882q0 -54 16 -74.5t44 -20.5q36 0 69 29.5t52 86.5 q40 116 40 267v56q0 14 5 21l8 6q5 0 8 -6q5 -7 5 -21v-66q0 -223 -74 -329q-52 -74 -132 -74q-88 0 -144 80q-73 105 -73 366z" />
<glyph unicode="d" horiz-adv-x="580" d="M43 482q0 402 70 527q43 76 112 76q27 0 51.5 -16.5t46.5 -49.5v460h-56q-10 6 -10 13q0 6 10 12h234v-1478h43q10 -7 10 -13t-10 -13h-221v80q-19 -46 -46 -69t-62 -23q-80 0 -126 119t-46 375zM221 84q0 -31 9 -43t21 -12q18 0 36 26q36 49 36 85v767q0 67 -28 107 q-19 28 -43 28q-12 0 -21.5 -10.5t-9.5 -27.5v-920z" />
<glyph unicode="e" horiz-adv-x="532" d="M27 487v147q0 239 88 363q63 88 152 88q106 0 163.5 -113t57.5 -275v-164h-282v-372q0 -87 20 -115q15 -21 49 -21q56 0 100 63q73 106 78 289q1 60 5.5 68t12.5 8q7 0 11 -6q5 -8 5 -38q0 -178 -62.5 -299.5t-168.5 -121.5q-99 0 -164 93.5t-65 405.5zM206 560h104v426 q0 41 -16 62q-11 15 -33 15t-38.5 -19t-16.5 -58v-426z" />
<glyph unicode="f" horiz-adv-x="393" d="M12 1058q0 7 10 15h50v160q0 145 54.5 214t121.5 69q49 0 87 -40.5t38 -99.5q0 -48 -24 -77t-53 -29t-49.5 22t-20.5 61q0 45 22 68.5t66 24.5q-10 20 -26 30t-37 10q-32 0 -58 -30.5t-26 -81.5q0 -61 40 -158.5t42 -142.5h117q10 -7 10 -12q0 -7 -10 -14h-117v-1021 l119 -2l2 -11q0 -7 -4 -13h-344l-5 3l-3 10q0 7 8 13h50v1021h-50q-10 6 -10 11z" />
<glyph unicode="g" horiz-adv-x="618" d="M27 -196q0 43 21 80.5t62 69.5q-32 21 -48.5 50.5t-16.5 67.5q0 66 35 101.5t123 47.5q-61 57 -89 135q-39 110 -39 285q0 250 80 362q58 82 152 82q60 0 109 -42q23 47 51 70.5t61 23.5q35 0 56.5 -23.5t21.5 -66.5q0 -37 -15 -55.5t-34 -18.5q-21 0 -34 14.5t-13 42.5 v11q1 9 1 15q0 17 -5.5 23t-15.5 6q-14 0 -28 -16t-27 -49q95 -121 95 -393q0 -237 -81 -351q-60 -84 -145 -84q-13 0 -33 1q-12 1 -63 1q-61 0 -86.5 -18t-25.5 -35q0 -16 14 -26q20 -14 63 -14h159q117 0 170.5 -53t53.5 -163q0 -120 -71 -188.5t-198 -68.5 q-128 0 -194 53.5t-66 122.5zM76 -168q0 -52 57 -97.5t163 -45.5q108 0 176 53q51 42 51 98q0 42 -28 62q-38 26 -153 26h-41q-100 0 -171 11q-27 -26 -40.5 -53t-13.5 -54zM252 319q0 -59 18 -84q13 -18 35 -18q20 0 32.5 16t12.5 56v695q0 48 -12.5 64t-35.5 16 q-22 0 -36 -17.5t-14 -62.5v-665z" />
<glyph unicode="h" horiz-adv-x="604" d="M19 1491q0 7 10 13h220v-513q41 55 73 74.5t75 19.5q67 0 95 -35q40 -47 40 -147v-877h36q10 -7 10 -13t-10 -13h-239q-7 6 -7 13t7 13h23v930q0 36 -9 50q-8 10 -22 10q-23 0 -43 -28q-29 -42 -29 -113v-849h27q10 -7 10 -13t-10 -13h-247l-5 3l-3 10q0 7 8 13h45v1453 h-45q-10 6 -10 12z" />
<glyph unicode="i" horiz-adv-x="328" d="M14 1060q0 6 3.5 9.5t9.5 3.5h217v-1047h43q6 0 9.5 -3.5t3.5 -10.5q0 -5 -3.5 -8.5t-9.5 -3.5h-260q-10 7 -10 13q0 7 10 13h39v1021h-39q-6 0 -9.5 3.5t-3.5 9.5zM51 1411q0 43 31 74t73 31q45 0 76 -30.5t31 -74.5t-31 -75t-75 -31q-43 0 -74 31t-31 75z" />
<glyph unicode="j" horiz-adv-x="342" d="M-44 -240q0 50 24 78.5t55 28.5q28 0 48 -21.5t20 -55.5q0 -41 -22.5 -64.5t-58.5 -23.5q-7 0 -17 1q6 -25 22.5 -37t45.5 -12q43 0 68.5 29t25.5 88q0 48 -20 107q-29 84 -55 132q-7 12 -7 34v1002h-52q-8 0 -12 4t-4 10q0 5 4 8q5 5 12 5h231v-1101q0 -184 -67 -277 q-47 -67 -118 -67q-53 0 -88 37t-35 95zM62 1411q0 44 31 74.5t78 30.5q44 0 74 -30.5t30 -73.5q0 -44 -31.5 -75.5t-75.5 -31.5t-75 31t-31 75z" />
<glyph unicode="k" horiz-adv-x="649" d="M21 13q0 6 4 9.5t9 3.5h37v1453h-37q-5 0 -8.5 3.5t-3.5 8.5q0 6 3.5 9.5t8.5 3.5h218v-987l198 406q18 37 18 65q0 23 -12 38t-33 19l-38 3q-6 3 -6 11q0 6 3.5 10t9.5 4h222q6 0 9.5 -4t3.5 -10q0 -8 -4 -11l-30 -2q-17 -1 -31 -6q-24 -10 -42 -35q-11 -16 -48 -93 l-101 -203l218 -683h34q6 0 10 -3.5t4 -9.5l-3 -9q-5 -4 -11 -4h-262q-6 0 -9.5 3.5t-3.5 9.5t3.5 9.5t9.5 3.5h49l-158 491v-491h40q11 -7 11 -13t-11 -13h-258q-6 0 -9.5 3.5t-3.5 9.5z" />
<glyph unicode="l" horiz-adv-x="350" d="M19 1491q0 6 4 9q4 4 10 4h222v-1478h39q5 0 8.5 -3.5t3.5 -9.5t-3.5 -9.5t-8.5 -3.5h-261q-5 0 -8.5 3.5t-3.5 9.5t3.5 9.5t8.5 3.5h42v1453h-42q-6 0 -10 3.5t-4 8.5z" />
<glyph unicode="m" horiz-adv-x="883" d="M17 13q0 6 10 13h39v1021h-39q-10 6 -10 12q0 7 10 14h218v-80q36 54 66 73t79 19q55 0 83.5 -22.5t48.5 -84.5q32 63 62 85t82 22q71 0 104.5 -33.5t33.5 -95.5v-930h33q6 0 10 -3.5t4 -9.5l-3 -9q-5 -4 -11 -4h-232q-10 7 -10 13t10 13h21v967q0 17 -8.5 27t-18.5 10 q-22 0 -43 -33q-34 -53 -34 -148v-823h22l6 -3q3 -4 3 -10t-9 -13h-225q-8 6 -8 13t8 13h27v952q0 27 -9 38.5t-21 11.5q-20 0 -37 -25q-34 -52 -34 -114v-863l24 -2q5 -3 5 -11q0 -6 -10 -13h-237q-10 7 -10 13z" />
<glyph unicode="n" horiz-adv-x="606" d="M18 13q0 6 10 13h43v1021h-43l-6 2q-3 4 -3 11q0 6 9 13h219v-82q35 53 69 73.5t82 20.5q64 0 91 -32q39 -46 39 -132v-895h33q6 0 9.5 -3.5t3.5 -9.5t-3.5 -9.5t-9.5 -3.5h-231q-5 0 -8.5 3.5t-3.5 9.5t3.5 9.5t8.5 3.5h20v936q0 31 -8 41.5t-22 10.5q-26 0 -45 -29 q-28 -43 -28 -141v-818h25q10 -7 10 -13t-10 -13h-244q-10 7 -10 13z" />
<glyph unicode="o" horiz-adv-x="555" d="M47 463v196q0 235 79 345q58 81 148 81q113 0 173.5 -119t60.5 -315v-217q0 -255 -78 -366q-56 -80 -149 -80q-54 0 -98.5 28t-80.5 101t-45.5 194t-9.5 152zM225 142q0 -79 18 -107q14 -20 38 -20q23 0 35.5 17.5t12.5 75.5v848q0 56 -16.5 78.5t-38.5 22.5 q-19 0 -34 -18.5t-15 -56.5v-840z" />
<glyph unicode="p" horiz-adv-x="580" d="M16 -360q0 6 3 9t8 3h39v1395h-39q-10 6 -10 13q0 6 10 13h205v-83q30 58 52.5 76.5t53.5 18.5q69 0 115 -78q76 -125 76 -447q0 -319 -51 -445.5t-140 -126.5q-28 0 -48.5 14.5t-44.5 54.5v-405h53q8 0 12 -3.5t4 -8.5l-3 -8q-5 -4 -13 -4h-271q-5 0 -8 3.5t-3 8.5z M245 187q0 -84 25 -122q17 -25 39 -25q17 0 26 13q13 18 13 65v855q0 39 -11 54t-25 15q-22 0 -40 -27q-27 -39 -27 -117v-711z" />
<glyph unicode="q" horiz-adv-x="592" d="M52 471q0 123 9 269t37 212t72.5 99.5t89.5 33.5q46 0 81.5 -38.5t53.5 -142.5q50 73 85 139q21 42 30 42q5 -5 5 -12v-1421h34q6 0 10 -3.5t4 -8.5l-3 -8q-5 -4 -11 -4h-267q-5 0 -8 3.5t-3 8.5q0 6 3 9t8 3h50v409q-39 -48 -59 -60.5t-45 -12.5q-66 0 -109 71 q-67 111 -67 412zM231 80q0 -21 11 -34q7 -9 20 -9q29 0 47 38q23 50 23 86v826q0 32 -18 55q-12 15 -32 15t-32 -18q-19 -26 -19 -83v-876z" />
<glyph unicode="r" horiz-adv-x="516" d="M17 1060q0 6 3.5 9.5t9.5 3.5h218v-132q34 90 63.5 117t62.5 27q45 0 81 -45q46 -58 46 -146q0 -75 -30.5 -113.5t-67.5 -38.5q-30 0 -50 26q-27 35 -27 100q0 64 38 123q19 30 19 41q0 9 -7 15.5t-17 6.5q-19 0 -36 -18q-29 -30 -52 -108.5t-23 -178.5v-723h51 q7 0 11 -4t4 -9l-3 -9q-6 -4 -12 -4h-269q-5 0 -8.5 3.5t-3.5 9.5t3.5 9.5t8.5 3.5h42v1021h-42q-6 0 -9.5 3.5t-3.5 9.5z" />
<glyph unicode="s" horiz-adv-x="469" d="M39 0v469q0 7 3.5 10.5t8.5 3.5q6 0 9 -4t5 -32q13 -194 66 -324q38 -94 90 -94q26 0 47 25.5t21 73.5q0 55 -23.5 134.5t-99 246t-97 240.5t-21.5 130q0 92 50.5 149t117.5 57q60 0 116 -55q15 10 45 39q17 15 23 15q4 0 7 -2q3 -4 3 -9v-422q0 -7 -4 -11t-9 -4 q-6 0 -9 5t-5 30q-13 185 -56 300q-31 80 -81 80q-28 0 -47 -21t-19 -57q0 -91 119 -329q80 -158 109 -252t29 -166q0 -109 -56 -173.5t-130 -64.5q-38 0 -66.5 17.5t-59.5 61.5q-19 -15 -46 -52q-20 -27 -30 -27q-4 0 -7 3t-3 9z" />
<glyph unicode="t" horiz-adv-x="459" d="M23 1061q0 7 9 15q84 65 122 129.5t67 150.5q21 62 22 86l2 46q3 5 9 5t9.5 -3t3.5 -8v-409h149q8 0 12.5 -4t4.5 -9q0 -6 -4 -9q-5 -4 -13 -4h-149v-931q0 -43 12 -59q8 -12 24 -12q34 0 60 39q39 58 39 178v146q0 14 6 22q4 5 10 5t10 -5q6 -8 6 -22v-111 q0 -169 -53.5 -239t-133.5 -70q-75 0 -110 41q-48 55 -48 156v862h-47q-9 0 -14 4t-5 10z" />
<glyph unicode="u" horiz-adv-x="604" d="M16 1059q0 7 9 14h216v-1004q0 -12 6 -18t17 -6q22 0 44 32q35 50 35 122v848h-39q-5 0 -7.5 3t-2.5 10q0 6 2.5 9.5t7.5 3.5h219v-1047h34q5 0 8.5 -3.5t3.5 -9.5t-3.5 -9.5t-8.5 -3.5h-214v80q-32 -51 -65.5 -71.5t-79.5 -20.5q-67 0 -101.5 35.5t-34.5 95.5v928h-37 q-9 6 -9 12z" />
<glyph unicode="v" horiz-adv-x="522" d="M0 1060q0 6 3 9q5 4 10 4h238q6 0 10 -4t4 -9q0 -6 -3 -9q-5 -4 -11 -4h-35l89 -777l105 668q2 11 2 25q0 61 -52 85q-13 6 -13 15q0 5 3 7q3 3 8 3h132q6 0 9 -2.5t3 -6.5q0 -9 -14 -15q-23 -11 -31 -25q-14 -23 -22 -78l-130 -862q-10 -68 -16 -76t-26 -8h-79 q-12 0 -18 9q-3 5 -12 75l-112 963h-29q-5 0 -9 3.5t-4 9.5z" />
<glyph unicode="w" horiz-adv-x="858" d="M3 1060q0 6 9 13h249q9 -7 9 -13t-9 -13h-51l95 -743l89 524l-30 219h-25q-5 0 -7.5 3.5t-2.5 9.5t2.5 9.5t7.5 3.5h253q5 0 8 -3.5t3 -9.5t-3 -9.5t-8 -3.5h-54l98 -732l102 623q5 27 5 47q0 25 -11 38t-44 24q-7 2 -9.5 4.5t-2.5 7.5t12 14h141l5 -3l2 -11q0 -5 -1 -7 t-6 -4q-56 -20 -78 -165l-128 -822q-7 -46 -14 -55q-5 -6 -17 -6h-73q-7 0 -12.5 8t-11.5 50l-92 698l-98 -633q-15 -96 -27 -114q-5 -9 -17 -9h-74q-9 0 -15 9q-3 6 -16 114l-121 924h-23l-6 3q-3 4 -3 10z" />
<glyph unicode="x" horiz-adv-x="520" d="M8 13q0 6 2.5 9t7.5 4q22 4 34 19q18 24 41 101l92 306l-124 595h-43l-5 2q-4 4 -4 10q0 7 9 14h257q5 0 8.5 -4t3.5 -10q0 -7 -6 -11l-42 -1l67 -319l78 260q2 5 2 10q0 19 -11.5 33t-25.5 16q-9 1 -12.5 4t-3.5 8q0 6 4 9q5 5 12 5h124q5 0 8.5 -3.5t3.5 -9.5t-2.5 -9 t-9.5 -4q-49 -9 -72 -86l-84 -284l139 -651h29q6 0 9.5 -3.5t3.5 -9.5t-3.5 -9.5t-9.5 -3.5h-263q-5 0 -8 3.5t-3 9.5t3 9.5t8 3.5h53l-81 377l-88 -303q-3 -9 -3 -16q0 -22 14.5 -39t30.5 -19q8 -1 11 -4t3 -8q0 -6 -4 -9q-5 -5 -11 -5h-129q-10 7 -10 13z" />
<glyph unicode="y" horiz-adv-x="520" d="M-8 1060q0 6 10 13h268q5 0 8.5 -4t3.5 -9q0 -6 -3.5 -9.5t-8.5 -3.5h-46l90 -768l86 604q5 33 5 61q0 55 -14.5 76t-42.5 25l-14 4q-3 4 -3 10q0 7 2.5 10.5t7.5 3.5h151q6 0 9.5 -4t3.5 -10q0 -5 -2.5 -8t-10.5 -4q-14 -4 -24 -21q-28 -47 -39 -119l-149 -1052 q-16 -114 -68 -170.5t-106 -56.5q-43 0 -76 37.5t-33 98.5q0 52 25.5 80.5t59.5 28.5q33 0 57.5 -26t24.5 -64q0 -59 -52 -92q-14 -9 -14 -18q0 -6 5.5 -10.5t16.5 -4.5q37 0 72 41q47 56 67 179l21 122h-108l-124 1047h-46q-10 6 -10 13z" />
<glyph unicode="z" horiz-adv-x="532" d="M16 0l297 1047h-42q-33 0 -66.5 -36.5t-64.5 -140.5q-20 -68 -30 -144l-3 -63q-3 -7 -11 -7q-5 0 -9 3.5t-4 10.5v403h416l-296 -1047h68q39 0 78 41q54 57 86.5 173t32.5 151v49q8 11 16 11q7 0 15 -11v-440h-483z" />
<glyph unicode="{" horiz-adv-x="533" d="M16 735v34q118 24 164 69t46 98q0 22 -24 136q-18 88 -18 126q0 75 44.5 146.5t118 112.5t182.5 59v-28q-125 -36 -166.5 -81.5t-41.5 -102.5q0 -44 26 -163q16 -74 16 -107q0 -53 -32.5 -111t-95.5 -102q-44 -31 -143 -67q88 -33 129 -60q67 -45 104.5 -105.5 t37.5 -118.5q0 -47 -27 -165q-15 -67 -15 -95q0 -66 41 -111.5t167 -81.5v-29q-155 28 -227 88q-118 99 -118 239q0 40 24 140q18 73 18 110q0 55 -45 100.5t-165 69.5z" />
<glyph unicode="|" horiz-adv-x="576" d="M240 -199v1703h97v-1703h-97z" />
<glyph unicode="}" horiz-adv-x="533" d="M4 -12v29q125 36 166.5 81t41.5 102q0 44 -26 163q-16 74 -16 107q0 53 32.5 111.5t95.5 102.5q45 31 144 67q-89 32 -130 60q-67 45 -104.5 105.5t-37.5 117.5q0 47 27 166q15 66 15 95q0 66 -41 111t-167 82v29q156 -29 228 -89q117 -99 117 -238q0 -41 -24 -141 q-17 -73 -17 -109q0 -56 44.5 -101t164.5 -70v-33q-118 -24 -164 -69.5t-46 -97.5q0 -23 24 -137q19 -87 19 -126q0 -74 -44.5 -146t-118.5 -113t-183 -59z" />
<glyph unicode="~" horiz-adv-x="960" d="M102 359q6 108 55.5 160.5t119.5 52.5t267 -84q105 -46 151 -46q51 0 85.5 33t41.5 96h36q-2 -101 -54 -157t-127 -56q-36 0 -74.5 11t-187.5 73q-105 43 -150 43q-49 0 -81.5 -29.5t-44.5 -96.5h-37z" />
<glyph unicode="&#xa1;" horiz-adv-x="319" d="M35 -222q0 37 17 193l85 784q1 13 6 19l8 4l8 -4q5 -6 6 -19l88 -784q18 -164 18 -203q0 -63 -33.5 -101.5t-81.5 -38.5q-51 0 -86 38.5t-35 111.5zM61 1046q0 56 26.5 86.5t64.5 30.5q40 0 65.5 -29.5t25.5 -88.5q0 -56 -26 -86.5t-63 -30.5q-38 0 -65.5 31.5 t-27.5 86.5z" />
<glyph unicode="&#xa2;" horiz-adv-x="512" d="M35 471v121q0 284 82 409q55 84 135 84q49 0 92 -42l28 261h23l-29 -291l6 -12l83 84h7v-415q0 -26 -4 -34q-3 -4 -8 -4t-8.5 4.5t-4.5 19.5q-2 68 -22 157t-53 162l-103 -958q69 9 113 70.5t59 205.5l8 178q2 12 10 12q5 0 8 -5q4 -7 4 -32q0 -187 -29 -280t-78 -135 q-35 -30 -98 -41l-25 -212h-23l23 212q-93 20 -137 97q-59 102 -59 384zM211 72q0 -24 24 -45l106 986q-40 49 -78 49q-23 0 -37.5 -13.5t-14.5 -35.5v-941z" />
<glyph unicode="&#xa3;" horiz-adv-x="725" d="M35 725v55h167l-8 39q-44 216 -44 339q0 176 77 267t188 91q103 0 169.5 -67t66.5 -172q0 -81 -34.5 -124.5t-74.5 -43.5q-32 0 -53.5 25.5t-21.5 76.5q0 56 24 83.5t59 27.5q19 0 42 -11l18 -6q4 3 4 9q0 76 -53 128.5t-138 52.5q-62 0 -98 -40.5t-36 -125.5 q0 -53 10.5 -115t46 -193.5t61.5 -240.5h198v-55h-198q13 -83 13 -156q0 -135 -56 -337l162 -39q42 -8 60 -8q34 0 55 26q21 25 22 88q0 23 4 29q2 4 8 4q5 0 8 -4q5 -7 5 -17v-63q0 -132 -51.5 -196t-120.5 -64q-40 0 -78 20t-123 98q-75 -118 -172 -118q-47 0 -71.5 21.5 t-24.5 54.5q0 71 89 128q64 40 169 40q-6 64 -15 114l-74 379h-181zM70 71q0 -25 18.5 -42t52.5 -17q44 0 82.5 28.5t62.5 88.5q-59 41 -101 41q-46 0 -80.5 -31t-34.5 -68z" />
<glyph unicode="&#xa4;" horiz-adv-x="1024" d="M27 253l144 145q-102 117 -102 282q0 157 102 283l-144 141l56 57l146 -142q52 45 132 73.5t153 28.5q69 0 145.5 -26t134.5 -76l143 142l58 -57l-144 -141q103 -132 103 -281q0 -154 -103 -284l144 -145l-58 -55l-143 143q-134 -103 -270 -103q-88 0 -171.5 30.5 t-123.5 72.5l-146 -143zM150 677q0 -147 106 -253t255 -106t256 107t107 254q0 148 -106 254.5t-256 106.5q-151 0 -256.5 -106.5t-105.5 -256.5z" />
<glyph unicode="&#xa5;" horiz-adv-x="641" d="M1 1491q0 7 3 10t8 3h325q11 -7 11 -12q0 -7 -11 -14h-80l155 -683l116 532q7 30 7 56q0 38 -12 61.5t-33 31.5l-33 4q-6 3 -6 11q0 7 11 13h162q11 0 15 -2l3 -5q0 -7 -12 -15q-50 -29 -69 -115l-128 -572h202v-25h-207l-5 -24v-348h212v-24h-212v-348h79q5 0 8.5 -3.5 t3.5 -9.5t-3.5 -9.5t-8.5 -3.5h-369q-5 0 -8 3.5t-3 9.5t3 9.5t8 3.5h83v348h-199v24h199v348l-6 24h-193v25h188l-153 683h-40q-5 0 -8 3.5t-3 9.5z" />
<glyph unicode="&#xa6;" horiz-adv-x="576" d="M478 -199v724h132v-724h-132zM478 780v724h132v-724h-132z" />
<glyph unicode="&#xa7;" horiz-adv-x="576" d="M36 804q0 46 16.5 91t65.5 119q-59 104 -59 209q0 138 68.5 215.5t167.5 77.5q92 0 154 -65t62 -173q0 -73 -33 -116q-25 -31 -65 -31q-35 0 -59 28t-24 82q0 69 27 106q18 26 45 26q11 0 19 -4q5 -2 11 -2q9 0 12 4q5 6 5 16q0 32 -45 67.5t-114 35.5q-53 0 -91 -40.5 t-38 -104.5q0 -67 36.5 -136.5t153 -189t153 -187.5t36.5 -131q0 -86 -82 -214q62 -89 62 -215q0 -132 -69.5 -209.5t-172.5 -77.5q-91 0 -152 65.5t-61 173.5q0 70 30.5 108t68.5 38q34 0 59 -29.5t25 -80.5q0 -65 -28 -104q-19 -26 -44 -26q-12 0 -23 3l-9 2q-9 0 -14 -5 q-4 -4 -4 -11q0 -35 41 -69.5t103 -34.5t104 43t42 110q0 63 -37 131.5t-154 185t-153 184t-36 135.5zM111 911q0 -30 17 -58t103 -117l160 -162q27 -30 53 -66q22 47 22 78q0 32 -26 72t-144 157q-77 76 -162 175q-23 -39 -23 -79z" />
<glyph unicode="&#xa8;" horiz-adv-x="682" d="M155 1305q0 78 25 112q18 26 49 26q29 0 47 -25q23 -33 23 -113q0 -78 -23 -109q-16 -23 -48 -23t-50 24q-23 32 -23 108zM368 1306q0 77 25 112q18 25 48 25t47 -24q22 -31 22 -106q0 -84 -23 -118q-18 -25 -49 -25q-29 0 -47 24q-23 34 -23 112z" />
<glyph unicode="&#xa9;" horiz-adv-x="1217" d="M97 879q0 133 68.5 256t191.5 189.5t251 66.5q129 0 251.5 -66.5t191.5 -189.5t69 -256q0 -132 -68 -254t-189.5 -189.5t-254.5 -67.5q-132 0 -254 67.5t-189.5 189.5t-67.5 254zM141 879q0 -193 137 -330t330 -137q194 0 330.5 137t136.5 330q0 122 -62.5 234.5 t-174.5 172.5t-230 60q-117 0 -229 -60t-175 -172.5t-63 -234.5zM286 876q0 129 97 223.5t234 94.5q67 0 142 -29q32 -13 47 -13q12 0 21 9t13 26q1 3 1 6h34v-204h-34q-16 77 -66 118t-119 41q-80 0 -136 -66t-56 -197q0 -133 53.5 -197t134.5 -64q45 0 88 18.5t77 51.5 q15 14 46 61v-77q-95 -99 -240 -99q-152 0 -244.5 86.5t-92.5 210.5z" />
<glyph unicode="&#xaa;" horiz-adv-x="362" d="M10 972q0 157 4 178.5t19 34.5q20 17 110 47q15 5 20 7q18 7 29 10v189q0 26 -16 42.5t-41 16.5q-51 0 -86 -59q21 6 31 6q29 0 47 -18.5t18 -48.5q0 -29 -19 -49t-47 -20t-46 19t-18 56q0 60 41 96.5t117 36.5q70 0 101.5 -25t31.5 -62v-557q0 -15 4.5 -20.5t12.5 -5.5 t15 6q12 10 20 30l6 8l5 -6q0 -24 -28.5 -48t-71.5 -24q-35 0 -53 16.5t-24 59.5q-35 -51 -53.5 -63.5t-48.5 -12.5q-54 0 -70 31q-10 21 -10 129zM126 872q0 -12 4.5 -17t10.5 -5q11 0 25 21q26 41 26 84v276q-42 -18 -54 -33t-12 -40v-286z" />
<glyph unicode="&#xab;" d="M22 564l248 547h25l-92 -547l92 -549h-25zM261 564l248 547h25l-92 -547l92 -549h-25z" />
<glyph unicode="&#xac;" horiz-adv-x="960" d="M99 870v92h761v-414h-92v322h-669z" />
<glyph unicode="&#xad;" horiz-adv-x="362" d="M55 464v143h253v-143h-253z" />
<glyph unicode="&#xae;" horiz-adv-x="1217" d="M97 879q0 133 68.5 256t191.5 189.5t251 66.5q129 0 251.5 -66.5t191.5 -189.5t69 -256q0 -132 -68 -254t-189.5 -189.5t-254.5 -67.5q-132 0 -254 67.5t-189.5 189.5t-67.5 254zM141 879q0 -193 137 -330t330 -137q194 0 330.5 137t136.5 330q0 122 -62.5 234.5 t-174.5 172.5t-230 60q-117 0 -229 -60t-175 -172.5t-63 -234.5zM310 594v24h29q31 0 44.5 15t13.5 58v395q0 43 -13.5 58t-44.5 15h-29v25h313q131 0 189.5 -48.5t58.5 -119.5q0 -45 -34.5 -86t-99.5 -58l119 -182q29 -44 52 -62q12 -9 34 -10v-24h-197l-173 265h-14v-168 q0 -43 13.5 -58t44.5 -15h33v-24h-339zM558 898q88 0 114 25q36 34 36 98q0 61 -31 91.5t-99 30.5h-20v-245z" />
<glyph unicode="&#xb0;" horiz-adv-x="811" d="M129 1240q0 115 80.5 195.5t196.5 80.5q115 0 195.5 -80.5t80.5 -195.5t-81 -196t-195 -81q-115 0 -196 81t-81 196zM205 1241q0 -84 58.5 -142.5t141.5 -58.5t142 58.5t59 142.5q0 83 -58.5 141.5t-142.5 58.5q-83 0 -141.5 -58.5t-58.5 -141.5z" />
<glyph unicode="&#xb1;" horiz-adv-x="960" d="M99 292v92h761v-92h-761zM99 827v93h335v334h92v-334h334v-93h-334v-334h-92v334h-335z" />
<glyph unicode="&#xb2;" horiz-adv-x="385" d="M44 1305q0 105 42.5 158t97.5 53q57 0 98 -51.5t41 -164.5q0 -76 -24.5 -127t-95.5 -116t-91.5 -99t-27.5 -89h213v133q0 14 3 18t9 4q8 0 11 -4t3 -18v-223h-277q2 97 14 134.5t68 113.5t72 121t16 136v131q0 38 -12 53t-32 15q-32 0 -58 -33q-38 -49 -38 -110 q0 -11 4 -16l7 -4q32 15 39 15q17 0 31 -18t14 -54q0 -39 -15.5 -57t-41.5 -18q-28 0 -49 27t-21 90z" />
<glyph unicode="&#xb3;" horiz-adv-x="385" d="M45 918q0 58 22 88q16 22 39 22q21 0 36 -17.5t15 -50.5q0 -35 -14.5 -53t-32.5 -18q-6 0 -29 6l-5 -2l-2 -10q0 -29 29 -58.5t59 -29.5q22 0 34 15q15 20 15 64v214q0 39 -13.5 56.5t-31.5 17.5q-8 0 -25 -6q-6 -2 -10 -4l-39 19l39 21q29 -10 38 -10q18 0 28 11 q14 16 14 39v187q0 42 -10.5 56t-28.5 14q-27 0 -52.5 -24.5t-25.5 -47.5q0 -6 2.5 -8.5t9.5 -2.5l11 1q17 0 31.5 -16.5t14.5 -42.5q0 -25 -15 -42t-34 -17q-22 0 -38.5 21.5t-16.5 66.5q0 62 36 100.5t88 38.5q55 0 95 -44.5t40 -125.5q0 -70 -26.5 -110t-80.5 -65 q58 -24 82.5 -63.5t24.5 -117.5q0 -117 -42 -169t-103 -52q-55 0 -91.5 39.5t-36.5 109.5z" />
<glyph unicode="&#xb4;" horiz-adv-x="682" d="M267 1153l12 319h199l-182 -323q-7 -13 -17 -13l-8 3q-4 6 -4 14z" />
<glyph unicode="&#xb5;" horiz-adv-x="1024" d="M109 -265q0 33 25 127q17 64 19 88q9 89 9 207v916h140v-755q0 -129 34.5 -176t85.5 -47q100 0 203 134v844h141v-842q0 -85 20 -115q13 -20 37 -20q23 0 38 19q22 28 33 104h36q-12 -130 -56.5 -180.5t-110.5 -50.5q-58 0 -92.5 39t-45.5 151q-81 -111 -141.5 -150.5 t-130.5 -39.5q-41 0 -69 18t-59 67q-2 -39 -2 -57q0 -66 32 -215q9 -40 9 -65q0 -49 -28 -83q-21 -25 -53 -25q-30 0 -48 23q-26 33 -26 84z" />
<glyph unicode="&#xb6;" horiz-adv-x="917" d="M-14 1129q0 110 43 180q58 97 154.5 146t252.5 49h495v-55h-133v-1742h-72v1742h-187v-1742h-73v1043q-191 8 -285.5 50t-144.5 131t-50 198z" />
<glyph unicode="&#xb8;" horiz-adv-x="682" d="M287 -335q0 6 2.5 9t8.5 3q19 -3 24 -3q28 0 41 18q13 17 13 79q0 118 -12 139q-9 15 -42 18v83h25v-59q56 -8 84 -42t28 -98q0 -83 -38 -127t-92 -44q-24 0 -34 8q-8 5 -8 16z" />
<glyph unicode="&#xb9;" horiz-adv-x="385" d="M68 1410q82 38 102 73q12 21 27 21h23q7 0 11 -5q6 -7 6 -20v-680h33q12 0 15.5 -2.5t3.5 -7.5t-3.5 -7.5t-15.5 -2.5h-175q-11 0 -14.5 2.5t-3.5 7.5t3.5 7.5t14.5 2.5h37v620l-58 -26z" />
<glyph unicode="&#xba;" horiz-adv-x="362" d="M34 1107v120q0 164 51 238q35 51 92 51q61 0 107 -62.5t46 -226.5v-106q0 -187 -49 -258q-34 -51 -95 -51t-100 55q-52 73 -52 240zM148 866q0 -18 11 -31q7 -8 23 -8q15 0 24 10t9 29v577q0 28 -10 41t-23 13q-14 0 -24 -13t-10 -41v-577z" />
<glyph unicode="&#xbb;" d="M22 12l96 551l-96 546h23l249 -546l-249 -551h-23zM262 12l96 551l-96 546h23l249 -546l-249 -551h-23z" />
<glyph unicode="&#xbc;" horiz-adv-x="768" d="M68 1410q82 38 102 73q12 21 27 21h23q7 0 11 -5q6 -7 6 -20v-680h33q12 0 15.5 -2.5t3.5 -7.5t-3.5 -7.5t-15.5 -2.5h-175q-11 0 -14.5 2.5t-3.5 7.5t3.5 7.5t14.5 2.5h37v620l-58 -26zM105 -12l586 1528h55l-586 -1528h-55zM472 204l175 514l4 6l6 2h33q5 0 11 -8v-494 h59l8 -7q0 -9 -8 -13h-59v-184h34l8 -8q0 -8 -8 -12h-176q-6 0 -8 2t-2 8l2 7l8 3h38v184h-125zM500 224h97v289z" />
<glyph unicode="&#xbd;" horiz-adv-x="768" d="M51 -12l586 1528h55l-586 -1528h-55zM68 1410q82 38 103 73q12 21 26 21h23q7 0 11 -5q6 -7 6 -20v-680h34q11 0 14.5 -2.5t3.5 -7.5t-3.5 -7.5t-14.5 -2.5h-175q-12 0 -15 2.5t-3 7.5t3 7.5t15 2.5h37v620l-58 -26zM428 526q0 105 42.5 158.5t97.5 53.5q57 0 98 -51.5 t41 -165.5q0 -76 -24.5 -127t-95.5 -116t-91.5 -99t-27.5 -89h212v134q0 13 3 17t10 4q8 0 11 -3.5t3 -17.5v-224h-278q3 97 15 135t68 114t72 120.5t16 136.5v130q0 38 -12 53.5t-32 15.5q-32 0 -58 -34q-38 -48 -38 -110q0 -11 4 -16l6 -4q5 0 19 7.5t21 7.5q17 0 31 -18 t14 -53q0 -40 -15.5 -58t-41.5 -18q-28 0 -49 27.5t-21 89.5z" />
<glyph unicode="&#xbe;" horiz-adv-x="768" d="M45 918q0 58 22 88q16 22 39 22q21 0 36 -17.5t15 -50.5q0 -35 -14.5 -53t-32.5 -18q-6 0 -29 6l-5 -2l-2 -10q0 -29 29 -58.5t59 -29.5q22 0 34 15q15 20 15 64v214q0 39 -13.5 56.5t-31.5 17.5q-8 0 -25 -6q-6 -2 -10 -4l-39 19l39 21q29 -10 38 -10q18 0 28 11 q14 16 14 39v187q0 42 -10.5 56t-28.5 14q-27 0 -52.5 -24.5t-25.5 -47.5q0 -6 2.5 -8.5t9.5 -2.5l11 1q17 0 31.5 -16.5t14.5 -42.5q0 -25 -15 -42t-34 -17q-22 0 -38.5 21.5t-16.5 66.5q0 62 36 100.5t88 38.5q55 0 95 -44.5t40 -125.5q0 -70 -26.5 -110t-80.5 -65 q58 -24 82.5 -63.5t24.5 -117.5q0 -117 -42 -169t-103 -52q-55 0 -91.5 39.5t-36.5 109.5zM105 -12l586 1528h55l-586 -1528h-55zM472 204l175 514l4 6l6 2h33q5 0 11 -8v-494h59l8 -7q0 -9 -8 -13h-59v-184h34l8 -8q0 -8 -8 -12h-176q-6 0 -8 2t-2 8l2 7l8 3h38v184h-125z M500 224h97v289z" />
<glyph unicode="&#xbf;" horiz-adv-x="532" d="M27 -43q0 111 28.5 175.5t138.5 187.5q153 172 153 293q0 61 -32.5 96.5t-82.5 35.5q-41 0 -71 -33.5t-30 -89.5q0 -48 26 -98q12 -22 12 -29l-8 -6q-10 0 -24 23q-29 48 -29 108q0 69 38 110t91 41q54 0 93.5 -44t39.5 -117q0 -37 -12 -77t-63 -143.5t-67.5 -164.5 t-16.5 -130v-333q0 -58 21 -83t53 -25q55 0 104 63q66 84 66 206q0 25 -5 33q-4 6 -10 6t-20 -13q-26 -23 -49 -23q-31 0 -62.5 39.5t-31.5 102.5q0 61 28.5 95t64.5 34q43 0 74 -43q43 -59 43 -177q0 -170 -71.5 -259.5t-161.5 -89.5q-99 0 -163 76.5t-64 252.5zM191 1038 q0 57 26 88t63 31t64.5 -31.5t27.5 -88.5q0 -56 -26 -85.5t-66 -29.5q-38 0 -63.5 29.5t-25.5 86.5z" />
<glyph unicode="&#xc0;" horiz-adv-x="627" d="M1 13q0 6 3 10l12 4q29 4 45 26q24 35 34 116l168 1314h111l178 -1457h45q11 -7 11 -13t-11 -13h-301q-5 0 -8 3.5t-3 9.5t3 9.5t8 3.5h48l-26 284h-181l-22 -161q-1 -13 -1 -27q0 -44 16.5 -66.5t45.5 -27.5l16 -5q4 -4 4 -10t-3.5 -9.5t-8.5 -3.5h-171q-5 0 -8.5 3.5 t-3.5 9.5zM140 336h175l-77 774zM189 1908h201l10 -320q1 -9 -3 -14t-10 -5q-13 0 -20 14z" />
<glyph unicode="&#xc1;" horiz-adv-x="627" d="M1 13q0 6 3 10l12 4q29 4 45 26q24 35 34 116l168 1314h111l178 -1457h45q11 -7 11 -13t-11 -13h-301q-5 0 -8 3.5t-3 9.5t3 9.5t8 3.5h48l-26 284h-181l-22 -161q-1 -13 -1 -27q0 -44 16.5 -66.5t45.5 -27.5l16 -5q4 -4 4 -10t-3.5 -9.5t-8.5 -3.5h-171q-5 0 -8.5 3.5 t-3.5 9.5zM140 336h175l-77 774zM237 1586l12 319h199l-182 -323q-7 -13 -17 -13l-8 3q-4 6 -4 14z" />
<glyph unicode="&#xc2;" horiz-adv-x="627" d="M1 13q0 6 3 10l12 4q29 4 45 26q24 35 34 116l168 1314h111l178 -1457h45q11 -7 11 -13t-11 -13h-301q-5 0 -8 3.5t-3 9.5t3 9.5t8 3.5h48l-26 284h-181l-22 -161q-1 -13 -1 -27q0 -44 16.5 -66.5t45.5 -27.5l16 -5q4 -4 4 -10t-3.5 -9.5t-8.5 -3.5h-171q-5 0 -8.5 3.5 t-3.5 9.5zM140 336h175l-77 774zM181 1577q0 2 1 4l96 320h103l107 -337h-136l-74 239l-75 -228q-1 -4 -4 -6t-6 -2q-5 0 -8.5 3t-3.5 7z" />
<glyph unicode="&#xc3;" horiz-adv-x="627" d="M1 13q0 6 3 10l12 4q29 4 45 26q24 35 34 116l168 1314h111l178 -1457h45q11 -7 11 -13t-11 -13h-301q-5 0 -8 3.5t-3 9.5t3 9.5t8 3.5h48l-26 284h-181l-22 -161q-1 -13 -1 -27q0 -44 16.5 -66.5t45.5 -27.5l16 -5q4 -4 4 -10t-3.5 -9.5t-8.5 -3.5h-171q-5 0 -8.5 3.5 t-3.5 9.5zM140 336h175l-77 774zM147 1653q0 132 40 186q29 41 83 41q46 0 77 -36q8 -8 45 -70q23 -38 49 -38q19 0 33 17.5t19 80.5q2 25 5 29.5t8 4.5t7 -4q5 -9 5 -37q0 -133 -39 -187q-27 -39 -79 -39q-38 0 -61.5 16.5t-49 62.5t-36 55t-26.5 9q-20 0 -31 -14 q-15 -20 -21 -77q-3 -31 -6 -36.5t-8 -5.5q-6 0 -9 6q-5 9 -5 36z" />
<glyph unicode="&#xc4;" horiz-adv-x="627" d="M1 13q0 6 3 10l12 4q29 4 45 26q24 35 34 116l168 1314h111l178 -1457h45q11 -7 11 -13t-11 -13h-301q-5 0 -8 3.5t-3 9.5t3 9.5t8 3.5h48l-26 284h-181l-22 -161q-1 -13 -1 -27q0 -44 16.5 -66.5t45.5 -27.5l16 -5q4 -4 4 -10t-3.5 -9.5t-8.5 -3.5h-171q-5 0 -8.5 3.5 t-3.5 9.5zM140 336h175l-77 774zM140 1738q0 78 25 112q18 26 49 26q29 0 47 -25q23 -33 23 -113q0 -78 -23 -109q-16 -23 -48 -23t-50 24q-23 32 -23 108zM353 1739q0 77 25 112q18 25 48 25t47 -24q22 -31 22 -106q0 -84 -23 -118q-18 -25 -49 -25q-29 0 -47 24 q-23 34 -23 112z" />
<glyph unicode="&#xc5;" horiz-adv-x="627" d="M1 13q0 6 3 10l12 4q29 4 45 26q24 35 34 116l168 1314h111l178 -1457h45q11 -7 11 -13t-11 -13h-301q-5 0 -8 3.5t-3 9.5t3 9.5t8 3.5h48l-26 284h-181l-22 -161q-1 -13 -1 -27q0 -44 16.5 -66.5t45.5 -27.5l16 -5q4 -4 4 -10t-3.5 -9.5t-8.5 -3.5h-171q-5 0 -8.5 3.5 t-3.5 9.5zM140 336h175l-77 774zM197 1740q0 52 37 89t88 37q53 0 89.5 -36.5t36.5 -88.5q0 -53 -36.5 -89.5t-88.5 -36.5q-53 0 -89.5 37t-36.5 88zM239 1739q0 -35 24 -59.5t59 -24.5t59 24.5t24 59.5q0 34 -24 58.5t-59 24.5t-59 -24.5t-24 -58.5z" />
<glyph unicode="&#xc6;" horiz-adv-x="901" d="M14 5q0 9 20 20q49 26 67 119l254 1335h-58q-5 0 -8.5 3.5t-3.5 8.5q0 7 3.5 10t8.5 3h562v-571q-5 -6 -10 -6t-11 6v50q0 95 -47 276q-27 100 -50 144t-49.5 60t-47.5 16h-83v-710q38 0 60 18q34 27 57.5 101.5t23.5 170.5v78q0 5 3.5 8.5t8.5 3.5q6 0 9 -3.5t3 -8.5 v-754l-2 -4q-4 -2 -10 -2q-7 0 -12 6v77q0 100 -24.5 172t-60.5 98q-21 15 -56 15v-719h29q55 0 108 55t92 202t45 270l4 62q3 5 9 5l7 -3q4 -4 4 -10v-607h-571q-9 7 -9 13q0 7 9 13h67v281h-191l-32 -140q-6 -25 -6 -52q0 -39 19 -64t33 -25h20q8 -7 8 -14q0 -6 -8 -12 h-177zM164 333h191v1009z" />
<glyph unicode="&#xc7;" d="M34 652v172q0 200 34.5 379.5t112.5 261.5q53 55 120 55q80 0 144 -110l80 105h11v-593q0 -7 -4 -11.5t-10 -4.5t-10 4q-4 5 -4 12v53q0 126 -29 253q-37 166 -102 236q-25 27 -65 27q-27 0 -43 -21q-21 -26 -21 -80v-1284q0 -48 18.5 -69.5t49.5 -21.5q40 0 82 35.5 t64 95.5q46 122 46 273v165q0 10 4 15t10 5q5 0 8 -4q6 -7 6 -16v-165q0 -233 -86 -350q-61 -84 -154 -84q-69 0 -120 43.5t-83 148.5q-59 197 -59 475zM257 -335q0 6 2.5 9t8.5 3q19 -3 24 -3q28 0 41 18q13 17 13 79q0 118 -12 139q-9 15 -42 18v83h25v-59q56 -8 84 -42 t28 -98q0 -83 -38 -127t-92 -44q-24 0 -34 8q-8 5 -8 16z" />
<glyph unicode="&#xc8;" horiz-adv-x="623" d="M5 13q0 6 4 9.5t11 3.5h64v1453h-64q-10 7 -10 12q0 7 10 13h568v-557q-6 -10 -12 -10t-8.5 3.5t-3.5 28.5q-7 166 -52 309t-87 181q-22 20 -74 20h-62v-704q57 6 93 60q48 73 48 224v78q0 5 3.5 8.5t8.5 3.5t8 -3.5t3 -8.5v-743q0 -5 -3 -8.5t-8 -3.5t-8.5 3.5t-3.5 8.5 v72q0 148 -54 235q-32 50 -67 50q-9 0 -14 -6q-6 -7 -6 -22v-697h32q41 0 81 30.5t75 106t54 164.5q31 144 31 225v66q7 11 13 11t9.5 -3t3.5 -8v-618h-568q-7 0 -11 4t-4 9zM189 1908h201l10 -320q1 -9 -3 -14t-10 -5q-13 0 -20 14z" />
<glyph unicode="&#xc9;" horiz-adv-x="623" d="M5 13q0 6 4 9.5t11 3.5h64v1453h-64q-10 7 -10 12q0 7 10 13h568v-557q-6 -10 -12 -10t-8.5 3.5t-3.5 28.5q-7 166 -52 309t-87 181q-22 20 -74 20h-62v-704q57 6 93 60q48 73 48 224v78q0 5 3.5 8.5t8.5 3.5t8 -3.5t3 -8.5v-743q0 -5 -3 -8.5t-8 -3.5t-8.5 3.5t-3.5 8.5 v72q0 148 -54 235q-32 50 -67 50q-9 0 -14 -6q-6 -7 -6 -22v-697h32q41 0 81 30.5t75 106t54 164.5q31 144 31 225v66q7 11 13 11t9.5 -3t3.5 -8v-618h-568q-7 0 -11 4t-4 9zM237 1586l12 319h199l-182 -323q-7 -13 -17 -13l-8 3q-4 6 -4 14z" />
<glyph unicode="&#xca;" horiz-adv-x="623" d="M5 13q0 6 4 9.5t11 3.5h64v1453h-64q-10 7 -10 12q0 7 10 13h568v-557q-6 -10 -12 -10t-8.5 3.5t-3.5 28.5q-7 166 -52 309t-87 181q-22 20 -74 20h-62v-704q57 6 93 60q48 73 48 224v78q0 5 3.5 8.5t8.5 3.5t8 -3.5t3 -8.5v-743q0 -5 -3 -8.5t-8 -3.5t-8.5 3.5t-3.5 8.5 v72q0 148 -54 235q-32 50 -67 50q-9 0 -14 -6q-6 -7 -6 -22v-697h32q41 0 81 30.5t75 106t54 164.5q31 144 31 225v66q7 11 13 11t9.5 -3t3.5 -8v-618h-568q-7 0 -11 4t-4 9zM161 1577q0 2 1 4l96 320h103l107 -337h-136l-74 239l-75 -228q-1 -4 -4 -6t-6 -2q-5 0 -8.5 3 t-3.5 7z" />
<glyph unicode="&#xcb;" horiz-adv-x="623" d="M5 13q0 6 4 9.5t11 3.5h64v1453h-64q-10 7 -10 12q0 7 10 13h568v-557q-6 -10 -12 -10t-8.5 3.5t-3.5 28.5q-7 166 -52 309t-87 181q-22 20 -74 20h-62v-704q57 6 93 60q48 73 48 224v78q0 5 3.5 8.5t8.5 3.5t8 -3.5t3 -8.5v-743q0 -5 -3 -8.5t-8 -3.5t-8.5 3.5t-3.5 8.5 v72q0 148 -54 235q-32 50 -67 50q-9 0 -14 -6q-6 -7 -6 -22v-697h32q41 0 81 30.5t75 106t54 164.5q31 144 31 225v66q7 11 13 11t9.5 -3t3.5 -8v-618h-568q-7 0 -11 4t-4 9zM125 1738q0 78 25 112q18 26 49 26q29 0 47 -25q23 -33 23 -113q0 -78 -23 -109q-16 -23 -48 -23 t-50 24q-23 32 -23 108zM338 1739q0 77 25 112q18 25 48 25t47 -24q22 -31 22 -106q0 -84 -23 -118q-18 -25 -49 -25q-29 0 -47 24q-23 34 -23 112z" />
<glyph unicode="&#xcc;" horiz-adv-x="393" d="M1 13q0 6 11 13h68v1453h-60q-5 0 -8 3.5t-3 8.5q0 6 3 9.5t8 3.5h325q5 0 8.5 -3.5t3.5 -8.5q0 -6 -3.5 -9.5t-8.5 -3.5h-60v-1453h60q10 -7 10 -13q0 -7 -10 -13h-333q-11 7 -11 13zM59 1908h201l10 -320q1 -9 -3 -14t-10 -5q-13 0 -20 14z" />
<glyph unicode="&#xcd;" horiz-adv-x="393" d="M1 13q0 6 11 13h68v1453h-60q-5 0 -8 3.5t-3 8.5q0 6 3 9.5t8 3.5h325q5 0 8.5 -3.5t3.5 -8.5q0 -6 -3.5 -9.5t-8.5 -3.5h-60v-1453h60q10 -7 10 -13q0 -7 -10 -13h-333q-11 7 -11 13zM102 1586l12 319h199l-182 -323q-7 -13 -17 -13l-8 3q-4 6 -4 14z" />
<glyph unicode="&#xce;" horiz-adv-x="393" d="M1 13q0 6 11 13h68v1453h-60q-5 0 -8 3.5t-3 8.5q0 6 3 9.5t8 3.5h325q5 0 8.5 -3.5t3.5 -8.5q0 -6 -3.5 -9.5t-8.5 -3.5h-60v-1453h60q10 -7 10 -13q0 -7 -10 -13h-333q-11 7 -11 13zM26 1577q0 2 1 4l96 320h103l107 -337h-136l-74 239l-75 -228q-1 -4 -4 -6t-6 -2 q-5 0 -8.5 3t-3.5 7z" />
<glyph unicode="&#xcf;" horiz-adv-x="393" d="M-10 1738q0 78 25 112q18 26 49 26q29 0 47 -25q23 -33 23 -113q0 -78 -23 -109q-16 -23 -48 -23t-50 24q-23 32 -23 108zM1 13q0 6 11 13h68v1453h-60q-5 0 -8 3.5t-3 8.5q0 6 3 9.5t8 3.5h325q5 0 8.5 -3.5t3.5 -8.5q0 -6 -3.5 -9.5t-8.5 -3.5h-60v-1453h60 q10 -7 10 -13q0 -7 -10 -13h-333q-11 7 -11 13zM203 1739q0 77 25 112q18 25 48 25t47 -24q22 -31 22 -106q0 -84 -23 -118q-18 -25 -49 -25q-29 0 -47 24q-23 34 -23 112z" />
<glyph unicode="&#xd0;" horiz-adv-x="666" d="M-1 13l3 9q5 4 14 4h60v715h-51v26h51v714h-60q-9 0 -12.5 2.5t-3.5 8.5l3 9q4 3 13 3h315q139 0 214.5 -147t75.5 -442v-346q0 -339 -122 -484q-72 -85 -227 -85h-256q-9 0 -13 3.5t-4 9.5zM283 26q75 0 94 15q28 21 28 116v1195q0 79 -19.5 104t-61.5 25h-41v-714h48 v-26h-48v-715z" />
<glyph unicode="&#xd1;" horiz-adv-x="633" d="M21 11q0 5 2.5 7.5t17.5 8.5q31 12 42.5 31t14.5 74v1347h-56q-5 0 -8.5 3.5t-3.5 9.5q0 5 3.5 8.5t8.5 3.5h259l202 -1099v977q0 46 -12 66t-37 28l-43 4q-5 2 -5 11q0 8 2.5 11t12.5 3h177q4 0 6.5 -3.5t2.5 -8.5t-2.5 -7.5t-17.5 -8.5q-31 -12 -43 -31.5t-15 -72.5 v-1373h-155l-249 1370v-1241q0 -51 11 -71.5t36 -28.5l45 -4q5 -3 5 -12q0 -8 -2.5 -10.5t-12.5 -2.5h-177q-4 0 -6.5 3t-2.5 8zM127 1653q0 132 40 186q29 41 83 41q46 0 77 -36q8 -8 45 -70q23 -38 49 -38q19 0 33 17.5t19 80.5q2 25 5 29.5t8 4.5t7 -4q5 -9 5 -37 q0 -133 -39 -187q-27 -39 -79 -39q-38 0 -61.5 16.5t-49 62.5t-36 55t-26.5 9q-20 0 -31 -14q-15 -20 -21 -77q-3 -31 -6 -36.5t-8 -5.5q-6 0 -9 6q-5 9 -5 36z" />
<glyph unicode="&#xd2;" horiz-adv-x="641" d="M42 539v432q0 302 101 448q70 101 173 101q50 0 92 -22.5t75 -66t59.5 -115t37.5 -148.5q18 -131 18 -246v-369q0 -319 -101 -466q-70 -102 -175 -102q-71 0 -131 51t-94 150q-55 159 -55 353zM159 1908h201l10 -320q1 -9 -3 -14t-10 -5q-13 0 -20 14zM253 149 q0 -78 24 -113q18 -25 44 -25q25 0 44 22.5t19 64.5v1282q0 54 -25 86q-17 23 -43 23q-23 0 -40 -22q-23 -30 -23 -87v-1231z" />
<glyph unicode="&#xd3;" horiz-adv-x="641" d="M42 539v432q0 302 101 448q70 101 173 101q50 0 92 -22.5t75 -66t59.5 -115t37.5 -148.5q18 -131 18 -246v-369q0 -319 -101 -466q-70 -102 -175 -102q-71 0 -131 51t-94 150q-55 159 -55 353zM247 1586l12 319h199l-182 -323q-7 -13 -17 -13l-8 3q-4 6 -4 14zM253 149 q0 -78 24 -113q18 -25 44 -25q25 0 44 22.5t19 64.5v1282q0 54 -25 86q-17 23 -43 23q-23 0 -40 -22q-23 -30 -23 -87v-1231z" />
<glyph unicode="&#xd4;" horiz-adv-x="641" d="M42 539v432q0 302 101 448q70 101 173 101q50 0 92 -22.5t75 -66t59.5 -115t37.5 -148.5q18 -131 18 -246v-369q0 -319 -101 -466q-70 -102 -175 -102q-71 0 -131 51t-94 150q-55 159 -55 353zM161 1577q0 2 1 4l96 320h103l107 -337h-136l-74 239l-75 -228q-1 -4 -4 -6 t-6 -2q-5 0 -8.5 3t-3.5 7zM253 149q0 -78 24 -113q18 -25 44 -25q25 0 44 22.5t19 64.5v1282q0 54 -25 86q-17 23 -43 23q-23 0 -40 -22q-23 -30 -23 -87v-1231z" />
<glyph unicode="&#xd5;" horiz-adv-x="641" d="M42 539v432q0 302 101 448q70 101 173 101q50 0 92 -22.5t75 -66t59.5 -115t37.5 -148.5q18 -131 18 -246v-369q0 -319 -101 -466q-70 -102 -175 -102q-71 0 -131 51t-94 150q-55 159 -55 353zM117 1653q0 132 40 186q29 41 83 41q46 0 77 -36q8 -8 45 -70q23 -38 49 -38 q19 0 33 17.5t19 80.5q2 25 5 29.5t8 4.5t7 -4q5 -9 5 -37q0 -133 -39 -187q-27 -39 -79 -39q-38 0 -61.5 16.5t-49 62.5t-36 55t-26.5 9q-20 0 -31 -14q-15 -20 -21 -77q-3 -31 -6 -36.5t-8 -5.5q-6 0 -9 6q-5 9 -5 36zM253 149q0 -78 24 -113q18 -25 44 -25q25 0 44 22.5 t19 64.5v1282q0 54 -25 86q-17 23 -43 23q-23 0 -40 -22q-23 -30 -23 -87v-1231z" />
<glyph unicode="&#xd6;" horiz-adv-x="641" d="M42 539v432q0 302 101 448q70 101 173 101q50 0 92 -22.5t75 -66t59.5 -115t37.5 -148.5q18 -131 18 -246v-369q0 -319 -101 -466q-70 -102 -175 -102q-71 0 -131 51t-94 150q-55 159 -55 353zM125 1738q0 78 25 112q18 26 49 26q29 0 47 -25q23 -33 23 -113 q0 -78 -23 -109q-16 -23 -48 -23t-50 24q-23 32 -23 108zM253 149q0 -78 24 -113q18 -25 44 -25q25 0 44 22.5t19 64.5v1282q0 54 -25 86q-17 23 -43 23q-23 0 -40 -22q-23 -30 -23 -87v-1231zM338 1739q0 77 25 112q18 25 48 25t47 -24q22 -31 22 -106q0 -84 -23 -118 q-18 -25 -49 -25q-29 0 -47 24q-23 34 -23 112z" />
<glyph unicode="&#xd7;" horiz-adv-x="960" d="M130 1041l65 65l285 -286l286 286l65 -65l-286 -286l283 -283l-65 -64l-283 283l-283 -283l-64 64l283 283z" />
<glyph unicode="&#xd8;" horiz-adv-x="641" d="M42 539v432q0 302 101 448q70 101 173 101q62 0 112.5 -35.5t88.5 -107.5l46 135h21l-54 -163q27 -69 41 -135q9 -40 16 -133q11 -124 11 -159v-369q0 -319 -101 -466q-70 -102 -175 -102q-119 0 -201 145l-50 -147l-25 8l59 173q-63 150 -63 375zM253 149q0 -78 24 -113 q18 -25 44 -25q25 0 44 22.5t19 64.5v816l-131 -388v-377zM253 602l131 382v396q0 54 -25 86q-17 23 -43 23q-23 0 -40 -22q-23 -30 -23 -87v-778z" />
<glyph unicode="&#xd9;" horiz-adv-x="678" d="M23 1491q0 6 11 13h321q5 0 8 -3.5t3 -8.5q0 -7 -3 -10.5t-8 -3.5h-56v-1376q0 -42 23 -65t62 -23q71 0 117.5 56.5t46.5 178.5v1101q0 75 -12.5 95.5t-47.5 28.5q-18 4 -23.5 9.5t-5.5 11.5l2 7l8 2h158q6 0 15 -11q0 -5 -4.5 -9t-15.5 -6q-20 -3 -31 -23 q-19 -32 -19 -105v-1129q0 -116 -59.5 -176t-171.5 -60q-141 0 -204 72q-44 51 -44 192v1229h-59q-11 8 -11 13zM189 1908h201l10 -320q1 -9 -3 -14t-10 -5q-13 0 -20 14z" />
<glyph unicode="&#xda;" horiz-adv-x="678" d="M23 1491q0 6 11 13h321q5 0 8 -3.5t3 -8.5q0 -7 -3 -10.5t-8 -3.5h-56v-1376q0 -42 23 -65t62 -23q71 0 117.5 56.5t46.5 178.5v1101q0 75 -12.5 95.5t-47.5 28.5q-18 4 -23.5 9.5t-5.5 11.5l2 7l8 2h158q6 0 15 -11q0 -5 -4.5 -9t-15.5 -6q-20 -3 -31 -23 q-19 -32 -19 -105v-1129q0 -116 -59.5 -176t-171.5 -60q-141 0 -204 72q-44 51 -44 192v1229h-59q-11 8 -11 13zM297 1586l12 319h199l-182 -323q-7 -13 -17 -13l-8 3q-4 6 -4 14z" />
<glyph unicode="&#xdb;" horiz-adv-x="678" d="M23 1491q0 6 11 13h321q5 0 8 -3.5t3 -8.5q0 -7 -3 -10.5t-8 -3.5h-56v-1376q0 -42 23 -65t62 -23q71 0 117.5 56.5t46.5 178.5v1101q0 75 -12.5 95.5t-47.5 28.5q-18 4 -23.5 9.5t-5.5 11.5l2 7l8 2h158q6 0 15 -11q0 -5 -4.5 -9t-15.5 -6q-20 -3 -31 -23 q-19 -32 -19 -105v-1129q0 -116 -59.5 -176t-171.5 -60q-141 0 -204 72q-44 51 -44 192v1229h-59q-11 8 -11 13zM191 1577q0 2 1 4l96 320h103l107 -337h-136l-74 239l-75 -228q-1 -4 -4 -6t-6 -2q-5 0 -8.5 3t-3.5 7z" />
<glyph unicode="&#xdc;" horiz-adv-x="678" d="M23 1491q0 6 11 13h321q5 0 8 -3.5t3 -8.5q0 -7 -3 -10.5t-8 -3.5h-56v-1376q0 -42 23 -65t62 -23q71 0 117.5 56.5t46.5 178.5v1101q0 75 -12.5 95.5t-47.5 28.5q-18 4 -23.5 9.5t-5.5 11.5l2 7l8 2h158q6 0 15 -11q0 -5 -4.5 -9t-15.5 -6q-20 -3 -31 -23 q-19 -32 -19 -105v-1129q0 -116 -59.5 -176t-171.5 -60q-141 0 -204 72q-44 51 -44 192v1229h-59q-11 8 -11 13zM155 1738q0 78 25 112q18 26 49 26q29 0 47 -25q23 -33 23 -113q0 -78 -23 -109q-16 -23 -48 -23t-50 24q-23 32 -23 108zM368 1739q0 77 25 112q18 25 48 25 t47 -24q22 -31 22 -106q0 -84 -23 -118q-18 -25 -49 -25q-29 0 -47 24q-23 34 -23 112z" />
<glyph unicode="&#xdd;" horiz-adv-x="657" d="M1 1491q0 7 3 10t8 3h325q11 -7 11 -12q0 -7 -11 -14h-80l155 -683l116 532q7 30 7 56q0 38 -12 61.5t-33 31.5l-33 4q-6 3 -6 11q0 7 11 13h162q11 0 15 -2l3 -5q0 -7 -12 -15q-50 -29 -69 -115l-138 -621v-720h79q5 0 8.5 -3.5t3.5 -9.5t-3.5 -9.5t-8.5 -3.5h-369 q-5 0 -8 3.5t-3 9.5t3 9.5t8 3.5h83v720l-164 732h-40q-5 0 -8 3.5t-3 9.5zM267 1586l12 319h199l-182 -323q-7 -13 -17 -13l-8 3q-4 6 -4 14z" />
<glyph unicode="&#xde;" horiz-adv-x="666" d="M5 13q0 7 3 10t9 3h66v1452h-66q-6 0 -9 3t-3 10t3 10t9 3h342q9 0 13 -3t4 -9l-3 -10q-5 -4 -14 -4h-67v-300h36q121 0 210 -108t89 -317q0 -120 -32 -221q-22 -70 -68.5 -118.5t-104.5 -75.5q-35 -16 -86 -16h-44v-296h61q6 0 9 -3t3 -10t-3 -10t-9 -3h-336q-6 0 -9 3 t-3 10zM292 343h20q52 0 77 25.5t25 88.5v588q0 61 -22 88q-16 19 -58 19h-42v-809z" />
<glyph unicode="&#xdf;" horiz-adv-x="580" d="M38 14q0 6 3.5 10t9.5 4h30v1224q0 126 64.5 195t166.5 69q99 0 161 -65.5t62 -181.5q0 -112 -48.5 -179.5t-164.5 -108.5q118 -33 161 -99q57 -90 57 -289v-213q0 -217 -71 -322q-48 -70 -118 -70q-20 0 -28 6q-6 4 -6 11t3.5 10t12.5 4q13 1 20 8q6 7 6 27v841 q0 36 -20.5 55t-60.5 19q-9 0 -21 -1v-968h-206q-6 0 -9.5 4t-3.5 10zM257 991q49 0 72 16q30 22 30 66v341q0 39 -15.5 58t-37.5 19q-20 0 -34.5 -15t-14.5 -36v-449z" />
<glyph unicode="&#xe0;" d="M25 95v377q0 61 26.5 90t156.5 72q58 20 97 40v288q0 45 -23.5 70t-61.5 25q-88 0 -131 -90q14 5 27 7.5t24 2.5q40 0 67.5 -29t27.5 -76q0 -48 -28 -77t-75 -29t-74 29.5t-27 87.5q0 86 65 144t185 58q108 0 155.5 -40.5t47.5 -103.5v-864q0 -15 8 -24.5t17 -9.5 q25 0 51 53q7 16 14 16l12 -11q0 -35 -45 -74t-108 -39q-54 0 -83.5 25t-44.5 88q-46 -68 -80.5 -90.5t-81.5 -22.5q-57 0 -87.5 29.5t-30.5 77.5zM129 1475h201l10 -320q1 -9 -3 -14t-10 -5q-13 0 -20 14zM204 90q0 -21 7.5 -31t18.5 -10q16 0 36 34q39 63 39 152v408 q-64 -25 -82.5 -50t-18.5 -80v-423z" />
<glyph unicode="&#xe1;" d="M25 95v377q0 61 26.5 90t156.5 72q58 20 97 40v288q0 45 -23.5 70t-61.5 25q-88 0 -131 -90q14 5 27 7.5t24 2.5q40 0 67.5 -29t27.5 -76q0 -48 -28 -77t-75 -29t-74 29.5t-27 87.5q0 86 65 144t185 58q108 0 155.5 -40.5t47.5 -103.5v-864q0 -15 8 -24.5t17 -9.5 q25 0 51 53q7 16 14 16l12 -11q0 -35 -45 -74t-108 -39q-54 0 -83.5 25t-44.5 88q-46 -68 -80.5 -90.5t-81.5 -22.5q-57 0 -87.5 29.5t-30.5 77.5zM204 90q0 -21 7.5 -31t18.5 -10q16 0 36 34q39 63 39 152v408q-64 -25 -82.5 -50t-18.5 -80v-423zM207 1153l12 319h199 l-182 -323q-7 -13 -17 -13l-8 3q-4 6 -4 14z" />
<glyph unicode="&#xe2;" d="M25 95v377q0 61 26.5 90t156.5 72q58 20 97 40v288q0 45 -23.5 70t-61.5 25q-88 0 -131 -90q14 5 27 7.5t24 2.5q40 0 67.5 -29t27.5 -76q0 -48 -28 -77t-75 -29t-74 29.5t-27 87.5q0 86 65 144t185 58q108 0 155.5 -40.5t47.5 -103.5v-864q0 -15 8 -24.5t17 -9.5 q25 0 51 53q7 16 14 16l12 -11q0 -35 -45 -74t-108 -39q-54 0 -83.5 25t-44.5 88q-46 -68 -80.5 -90.5t-81.5 -22.5q-57 0 -87.5 29.5t-30.5 77.5zM131 1144q0 2 1 4l96 320h103l107 -337h-136l-74 239l-75 -228q-1 -4 -4 -6t-6 -2q-5 0 -8.5 3t-3.5 7zM204 90 q0 -21 7.5 -31t18.5 -10q16 0 36 34q39 63 39 152v408q-64 -25 -82.5 -50t-18.5 -80v-423z" />
<glyph unicode="&#xe3;" d="M25 95v377q0 61 26.5 90t156.5 72q58 20 97 40v288q0 45 -23.5 70t-61.5 25q-88 0 -131 -90q14 5 27 7.5t24 2.5q40 0 67.5 -29t27.5 -76q0 -48 -28 -77t-75 -29t-74 29.5t-27 87.5q0 86 65 144t185 58q108 0 155.5 -40.5t47.5 -103.5v-864q0 -15 8 -24.5t17 -9.5 q25 0 51 53q7 16 14 16l12 -11q0 -35 -45 -74t-108 -39q-54 0 -83.5 25t-44.5 88q-46 -68 -80.5 -90.5t-81.5 -22.5q-57 0 -87.5 29.5t-30.5 77.5zM87 1220q0 132 40 186q29 41 83 41q46 0 77 -36q8 -8 45 -70q23 -38 49 -38q19 0 33 17.5t19 80.5q2 25 5 29.5t8 4.5t7 -4 q5 -9 5 -37q0 -133 -39 -187q-27 -39 -79 -39q-38 0 -61.5 16.5t-49 62.5t-36 55t-26.5 9q-20 0 -31 -14q-15 -20 -21 -77q-3 -31 -6 -36.5t-8 -5.5q-6 0 -9 6q-5 9 -5 36zM204 90q0 -21 7.5 -31t18.5 -10q16 0 36 34q39 63 39 152v408q-64 -25 -82.5 -50t-18.5 -80v-423z " />
<glyph unicode="&#xe4;" d="M25 95v377q0 61 26.5 90t156.5 72q58 20 97 40v288q0 45 -23.5 70t-61.5 25q-88 0 -131 -90q14 5 27 7.5t24 2.5q40 0 67.5 -29t27.5 -76q0 -48 -28 -77t-75 -29t-74 29.5t-27 87.5q0 86 65 144t185 58q108 0 155.5 -40.5t47.5 -103.5v-864q0 -15 8 -24.5t17 -9.5 q25 0 51 53q7 16 14 16l12 -11q0 -35 -45 -74t-108 -39q-54 0 -83.5 25t-44.5 88q-46 -68 -80.5 -90.5t-81.5 -22.5q-57 0 -87.5 29.5t-30.5 77.5zM95 1305q0 78 25 112q18 26 49 26q29 0 47 -25q23 -33 23 -113q0 -78 -23 -109q-16 -23 -48 -23t-50 24q-23 32 -23 108z M204 90q0 -21 7.5 -31t18.5 -10q16 0 36 34q39 63 39 152v408q-64 -25 -82.5 -50t-18.5 -80v-423zM308 1306q0 77 25 112q18 25 48 25t47 -24q22 -31 22 -106q0 -84 -23 -118q-18 -25 -49 -25q-29 0 -47 24q-23 34 -23 112z" />
<glyph unicode="&#xe5;" d="M25 95v377q0 61 26.5 90t156.5 72q58 20 97 40v288q0 45 -23.5 70t-61.5 25q-88 0 -131 -90q14 5 27 7.5t24 2.5q40 0 67.5 -29t27.5 -76q0 -48 -28 -77t-75 -29t-74 29.5t-27 87.5q0 86 65 144t185 58q108 0 155.5 -40.5t47.5 -103.5v-864q0 -15 8 -24.5t17 -9.5 q25 0 51 53q7 16 14 16l12 -11q0 -35 -45 -74t-108 -39q-54 0 -83.5 25t-44.5 88q-46 -68 -80.5 -90.5t-81.5 -22.5q-57 0 -87.5 29.5t-30.5 77.5zM147 1307q0 52 37 89t88 37q53 0 89.5 -36.5t36.5 -88.5q0 -53 -36.5 -89.5t-88.5 -36.5q-53 0 -89.5 37t-36.5 88zM189 1306 q0 -35 24 -59.5t59 -24.5t59 24.5t24 59.5q0 34 -24 58.5t-59 24.5t-59 -24.5t-24 -58.5zM204 90q0 -21 7.5 -31t18.5 -10q16 0 36 34q39 63 39 152v408q-64 -25 -82.5 -50t-18.5 -80v-423z" />
<glyph unicode="&#xe6;" horiz-adv-x="811" d="M36 133v360q0 49 40 80q25 20 171 73q33 12 70 30v303q0 42 -18 61t-53 19q-107 0 -146 -92q23 10 51 10q39 0 65.5 -28t26.5 -76t-29.5 -79t-70.5 -31q-44 0 -73 30.5t-29 84.5q0 91 64 149t192 58q88 0 148 -40q60 40 103 40q108 0 167.5 -121.5t59.5 -307.5v-123h-281 v-417q0 -55 17.5 -75.5t51.5 -20.5q58 0 106 73q75 112 75 322v26q0 7 4 11t11 4t10.5 -4t3.5 -22q0 -137 -34 -248t-95 -162q-38 -32 -98 -32t-110 38.5t-89 136.5q-42 -105 -87 -140t-105 -35q-59 0 -84 29q-35 40 -35 116zM214 75q0 -12 7 -20q5 -6 15 -6q22 0 51.5 41 t29.5 117v436q-62 -16 -82.5 -37t-20.5 -48v-483zM494 558h101v430q0 41 -15 59q-11 15 -33 15q-23 0 -38 -15.5t-15 -41.5v-447z" />
<glyph unicode="&#xe7;" horiz-adv-x="512" d="M47 434v191q0 260 80 379q55 81 136 81q70 0 116 -81q30 24 53 52.5t31 28.5l5 -2l2 -10v-428q0 -7 -4 -11t-9 -4q-7 0 -10 5q-2 4 -6 49q-6 75 -39 190.5t-65.5 151t-69.5 35.5q-24 0 -34 -12.5t-10 -53.5v-882q0 -54 16 -74.5t44 -20.5q36 0 69 29.5t52 86.5 q40 116 40 267v56q0 14 5 21l8 6q5 0 8 -6q5 -7 5 -21v-66q0 -223 -74 -329q-52 -74 -132 -74q-88 0 -144 80q-73 105 -73 366zM217 -335q0 6 2.5 9t8.5 3q19 -3 24 -3q28 0 41 18q13 17 13 79q0 118 -12 139q-9 15 -42 18v83h25v-59q56 -8 84 -42t28 -98q0 -83 -38 -127 t-92 -44q-24 0 -34 8q-8 5 -8 16z" />
<glyph unicode="&#xe8;" horiz-adv-x="532" d="M27 487v147q0 239 88 363q63 88 152 88q106 0 163.5 -113t57.5 -275v-164h-282v-372q0 -87 20 -115q15 -21 49 -21q56 0 100 63q73 106 78 289q1 60 5.5 68t12.5 8q7 0 11 -6q5 -8 5 -38q0 -178 -62.5 -299.5t-168.5 -121.5q-99 0 -164 93.5t-65 405.5zM109 1475h201 l10 -320q1 -9 -3 -14t-10 -5q-13 0 -20 14zM206 560h104v426q0 41 -16 62q-11 15 -33 15t-38.5 -19t-16.5 -58v-426z" />
<glyph unicode="&#xe9;" horiz-adv-x="532" d="M27 487v147q0 239 88 363q63 88 152 88q106 0 163.5 -113t57.5 -275v-164h-282v-372q0 -87 20 -115q15 -21 49 -21q56 0 100 63q73 106 78 289q1 60 5.5 68t12.5 8q7 0 11 -6q5 -8 5 -38q0 -178 -62.5 -299.5t-168.5 -121.5q-99 0 -164 93.5t-65 405.5zM187 1153l12 319 h199l-182 -323q-7 -13 -17 -13l-8 3q-4 6 -4 14zM206 560h104v426q0 41 -16 62q-11 15 -33 15t-38.5 -19t-16.5 -58v-426z" />
<glyph unicode="&#xea;" horiz-adv-x="532" d="M27 487v147q0 239 88 363q63 88 152 88q106 0 163.5 -113t57.5 -275v-164h-282v-372q0 -87 20 -115q15 -21 49 -21q56 0 100 63q73 106 78 289q1 60 5.5 68t12.5 8q7 0 11 -6q5 -8 5 -38q0 -178 -62.5 -299.5t-168.5 -121.5q-99 0 -164 93.5t-65 405.5zM111 1144q0 2 1 4 l96 320h103l107 -337h-136l-74 239l-75 -228q-1 -4 -4 -6t-6 -2q-5 0 -8.5 3t-3.5 7zM206 560h104v426q0 41 -16 62q-11 15 -33 15t-38.5 -19t-16.5 -58v-426z" />
<glyph unicode="&#xeb;" horiz-adv-x="532" d="M27 487v147q0 239 88 363q63 88 152 88q106 0 163.5 -113t57.5 -275v-164h-282v-372q0 -87 20 -115q15 -21 49 -21q56 0 100 63q73 106 78 289q1 60 5.5 68t12.5 8q7 0 11 -6q5 -8 5 -38q0 -178 -62.5 -299.5t-168.5 -121.5q-99 0 -164 93.5t-65 405.5zM75 1305 q0 78 25 112q18 26 49 26q29 0 47 -25q23 -33 23 -113q0 -78 -23 -109q-16 -23 -48 -23t-50 24q-23 32 -23 108zM206 560h104v426q0 41 -16 62q-11 15 -33 15t-38.5 -19t-16.5 -58v-426zM288 1306q0 77 25 112q18 25 48 25t47 -24q22 -31 22 -106q0 -84 -23 -118 q-18 -25 -49 -25q-29 0 -47 24q-23 34 -23 112z" />
<glyph unicode="&#xec;" horiz-adv-x="328" d="M14 1060q0 6 3.5 9.5t9.5 3.5h217v-1047h43q6 0 9.5 -3.5t3.5 -10.5q0 -5 -3.5 -8.5t-9.5 -3.5h-260q-10 7 -10 13q0 7 10 13h39v1021h-39q-6 0 -9.5 3.5t-3.5 9.5zM19 1475h201l10 -320q1 -9 -3 -14t-10 -5q-13 0 -20 14z" />
<glyph unicode="&#xed;" horiz-adv-x="328" d="M14 1060q0 6 3.5 9.5t9.5 3.5h217v-1047h43q6 0 9.5 -3.5t3.5 -10.5q0 -5 -3.5 -8.5t-9.5 -3.5h-260q-10 7 -10 13q0 7 10 13h39v1021h-39q-6 0 -9.5 3.5t-3.5 9.5zM77 1153l12 319h199l-182 -323q-7 -13 -17 -13l-8 3q-4 6 -4 14z" />
<glyph unicode="&#xee;" horiz-adv-x="328" d="M1 1144q0 2 1 4l96 320h103l107 -337h-136l-74 239l-75 -228q-1 -4 -4 -6t-6 -2q-5 0 -8.5 3t-3.5 7zM14 1060q0 6 3.5 9.5t9.5 3.5h217v-1047h43q6 0 9.5 -3.5t3.5 -10.5q0 -5 -3.5 -8.5t-9.5 -3.5h-260q-10 7 -10 13q0 7 10 13h39v1021h-39q-6 0 -9.5 3.5t-3.5 9.5z " />
<glyph unicode="&#xef;" horiz-adv-x="328" d="M-35 1305q0 78 25 112q18 26 49 26q29 0 47 -25q23 -33 23 -113q0 -78 -23 -109q-16 -23 -48 -23t-50 24q-23 32 -23 108zM14 1060q0 6 3.5 9.5t9.5 3.5h217v-1047h43q6 0 9.5 -3.5t3.5 -10.5q0 -5 -3.5 -8.5t-9.5 -3.5h-260q-10 7 -10 13q0 7 10 13h39v1021h-39 q-6 0 -9.5 3.5t-3.5 9.5zM178 1306q0 77 25 112q18 25 48 25t47 -24q22 -31 22 -106q0 -84 -23 -118q-18 -25 -49 -25q-29 0 -47 24q-23 34 -23 112z" />
<glyph unicode="&#xf0;" horiz-adv-x="555" d="M38 554q0 333 72 454q46 77 113 77q27 0 52 -13.5t48 -40.5q-10 117 -20.5 169.5t-31.5 103.5l-126 -107l-19 23l131 112q-43 83 -113 159l15 13q76 -49 143 -134l127 108l19 -23l-128 -109q181 -255 181 -659v-221q0 -286 -76 -395q-58 -83 -158 -83q-97 0 -150 84 q-79 124 -79 482zM216 159q0 -111 17 -140q11 -19 33 -19q23 0 40 17.5t17 43.5v868q0 63 -25 95q-18 24 -44 24q-17 0 -27.5 -14.5t-10.5 -57.5v-817z" />
<glyph unicode="&#xf1;" horiz-adv-x="606" d="M18 13q0 6 10 13h43v1021h-43l-6 2q-3 4 -3 11q0 6 9 13h219v-82q35 53 69 73.5t82 20.5q64 0 91 -32q39 -46 39 -132v-895h33q6 0 9.5 -3.5t3.5 -9.5t-3.5 -9.5t-9.5 -3.5h-231q-5 0 -8.5 3.5t-3.5 9.5t3.5 9.5t8.5 3.5h20v936q0 31 -8 41.5t-22 10.5q-26 0 -45 -29 q-28 -43 -28 -141v-818h25q10 -7 10 -13t-10 -13h-244q-10 7 -10 13zM117 1220q0 132 40 186q29 41 83 41q46 0 77 -36q8 -8 45 -70q23 -38 49 -38q19 0 33 17.5t19 80.5q2 25 5 29.5t8 4.5t7 -4q5 -9 5 -37q0 -133 -39 -187q-27 -39 -79 -39q-38 0 -61.5 16.5t-49 62.5 t-36 55t-26.5 9q-20 0 -31 -14q-15 -20 -21 -77q-3 -31 -6 -36.5t-8 -5.5q-6 0 -9 6q-5 9 -5 36z" />
<glyph unicode="&#xf2;" horiz-adv-x="555" d="M47 463v196q0 235 79 345q58 81 148 81q113 0 173.5 -119t60.5 -315v-217q0 -255 -78 -366q-56 -80 -149 -80q-54 0 -98.5 28t-80.5 101t-45.5 194t-9.5 152zM129 1475h201l10 -320q1 -9 -3 -14t-10 -5q-13 0 -20 14zM225 142q0 -79 18 -107q14 -20 38 -20 q23 0 35.5 17.5t12.5 75.5v848q0 56 -16.5 78.5t-38.5 22.5q-19 0 -34 -18.5t-15 -56.5v-840z" />
<glyph unicode="&#xf3;" horiz-adv-x="555" d="M47 463v196q0 235 79 345q58 81 148 81q113 0 173.5 -119t60.5 -315v-217q0 -255 -78 -366q-56 -80 -149 -80q-54 0 -98.5 28t-80.5 101t-45.5 194t-9.5 152zM197 1153l12 319h199l-182 -323q-7 -13 -17 -13l-8 3q-4 6 -4 14zM225 142q0 -79 18 -107q14 -20 38 -20 q23 0 35.5 17.5t12.5 75.5v848q0 56 -16.5 78.5t-38.5 22.5q-19 0 -34 -18.5t-15 -56.5v-840z" />
<glyph unicode="&#xf4;" horiz-adv-x="555" d="M47 463v196q0 235 79 345q58 81 148 81q113 0 173.5 -119t60.5 -315v-217q0 -255 -78 -366q-56 -80 -149 -80q-54 0 -98.5 28t-80.5 101t-45.5 194t-9.5 152zM131 1144q0 2 1 4l96 320h103l107 -337h-136l-74 239l-75 -228q-1 -4 -4 -6t-6 -2q-5 0 -8.5 3t-3.5 7z M225 142q0 -79 18 -107q14 -20 38 -20q23 0 35.5 17.5t12.5 75.5v848q0 56 -16.5 78.5t-38.5 22.5q-19 0 -34 -18.5t-15 -56.5v-840z" />
<glyph unicode="&#xf5;" horiz-adv-x="555" d="M47 463v196q0 235 79 345q58 81 148 81q113 0 173.5 -119t60.5 -315v-217q0 -255 -78 -366q-56 -80 -149 -80q-54 0 -98.5 28t-80.5 101t-45.5 194t-9.5 152zM97 1220q0 132 40 186q29 41 83 41q46 0 77 -36q8 -8 45 -70q23 -38 49 -38q19 0 33 17.5t19 80.5q2 25 5 29.5 t8 4.5t7 -4q5 -9 5 -37q0 -133 -39 -187q-27 -39 -79 -39q-38 0 -61.5 16.5t-49 62.5t-36 55t-26.5 9q-20 0 -31 -14q-15 -20 -21 -77q-3 -31 -6 -36.5t-8 -5.5q-6 0 -9 6q-5 9 -5 36zM225 142q0 -79 18 -107q14 -20 38 -20q23 0 35.5 17.5t12.5 75.5v848q0 56 -16.5 78.5 t-38.5 22.5q-19 0 -34 -18.5t-15 -56.5v-840z" />
<glyph unicode="&#xf6;" horiz-adv-x="555" d="M47 463v196q0 235 79 345q58 81 148 81q113 0 173.5 -119t60.5 -315v-217q0 -255 -78 -366q-56 -80 -149 -80q-54 0 -98.5 28t-80.5 101t-45.5 194t-9.5 152zM95 1305q0 78 25 112q18 26 49 26q29 0 47 -25q23 -33 23 -113q0 -78 -23 -109q-16 -23 -48 -23t-50 24 q-23 32 -23 108zM225 142q0 -79 18 -107q14 -20 38 -20q23 0 35.5 17.5t12.5 75.5v848q0 56 -16.5 78.5t-38.5 22.5q-19 0 -34 -18.5t-15 -56.5v-840zM308 1306q0 77 25 112q18 25 48 25t47 -24q22 -31 22 -106q0 -84 -23 -118q-18 -25 -49 -25q-29 0 -47 24q-23 34 -23 112 z" />
<glyph unicode="&#xf7;" horiz-adv-x="960" d="M99 709v93h761v-93h-761zM421 434q0 24 17 41.5t42 17.5q24 0 41.5 -17.5t17.5 -41.5q0 -25 -17.5 -42t-41.5 -17q-25 0 -42 17t-17 42zM421 1077q0 25 17 42t42 17q24 0 41.5 -17t17.5 -42q0 -24 -17.5 -41.5t-41.5 -17.5q-25 0 -42 17.5t-17 41.5z" />
<glyph unicode="&#xf8;" horiz-adv-x="555" d="M47 463v196q0 235 79 346q58 80 148 80q77 0 137 -66l21 63h28l-29 -89q77 -124 77 -342v-217q0 -255 -78 -366q-56 -80 -149 -80q-89 0 -147 75l-24 -74l-28 11l31 95q-35 67 -44 121q-22 141 -22 247zM225 142q0 -79 18 -107q14 -20 38 -20q23 0 35.5 17.5t12.5 75.5 v565l-104 -326v-205zM225 441l104 323v192q0 56 -16.5 78.5t-38.5 22.5q-19 0 -34 -18.5t-15 -56.5v-541z" />
<glyph unicode="&#xf9;" horiz-adv-x="604" d="M16 1059q0 7 9 14h216v-1004q0 -12 6 -18t17 -6q22 0 44 32q35 50 35 122v848h-39q-5 0 -7.5 3t-2.5 10q0 6 2.5 9.5t7.5 3.5h219v-1047h34q5 0 8.5 -3.5t3.5 -9.5t-3.5 -9.5t-8.5 -3.5h-214v80q-32 -51 -65.5 -71.5t-79.5 -20.5q-67 0 -101.5 35.5t-34.5 95.5v928h-37 q-9 6 -9 12zM149 1475h201l10 -320q1 -9 -3 -14t-10 -5q-13 0 -20 14z" />
<glyph unicode="&#xfa;" horiz-adv-x="604" d="M16 1059q0 7 9 14h216v-1004q0 -12 6 -18t17 -6q22 0 44 32q35 50 35 122v848h-39q-5 0 -7.5 3t-2.5 10q0 6 2.5 9.5t7.5 3.5h219v-1047h34q5 0 8.5 -3.5t3.5 -9.5t-3.5 -9.5t-8.5 -3.5h-214v80q-32 -51 -65.5 -71.5t-79.5 -20.5q-67 0 -101.5 35.5t-34.5 95.5v928h-37 q-9 6 -9 12zM227 1153l12 319h199l-182 -323q-7 -13 -17 -13l-8 3q-4 6 -4 14z" />
<glyph unicode="&#xfb;" horiz-adv-x="604" d="M16 1059q0 7 9 14h216v-1004q0 -12 6 -18t17 -6q22 0 44 32q35 50 35 122v848h-39q-5 0 -7.5 3t-2.5 10q0 6 2.5 9.5t7.5 3.5h219v-1047h34q5 0 8.5 -3.5t3.5 -9.5t-3.5 -9.5t-8.5 -3.5h-214v80q-32 -51 -65.5 -71.5t-79.5 -20.5q-67 0 -101.5 35.5t-34.5 95.5v928h-37 q-9 6 -9 12zM151 1144q0 2 1 4l96 320h103l107 -337h-136l-74 239l-75 -228q-1 -4 -4 -6t-6 -2q-5 0 -8.5 3t-3.5 7z" />
<glyph unicode="&#xfc;" horiz-adv-x="604" d="M16 1059q0 7 9 14h216v-1004q0 -12 6 -18t17 -6q22 0 44 32q35 50 35 122v848h-39q-5 0 -7.5 3t-2.5 10q0 6 2.5 9.5t7.5 3.5h219v-1047h34q5 0 8.5 -3.5t3.5 -9.5t-3.5 -9.5t-8.5 -3.5h-214v80q-32 -51 -65.5 -71.5t-79.5 -20.5q-67 0 -101.5 35.5t-34.5 95.5v928h-37 q-9 6 -9 12zM110 1305q0 78 25 112q18 26 49 26q29 0 47 -25q23 -33 23 -113q0 -78 -23 -109q-16 -23 -48 -23t-50 24q-23 32 -23 108zM323 1306q0 77 25 112q18 25 48 25t47 -24q22 -31 22 -106q0 -84 -23 -118q-18 -25 -49 -25q-29 0 -47 24q-23 34 -23 112z" />
<glyph unicode="&#xfd;" horiz-adv-x="520" d="M-8 1060q0 6 10 13h268q5 0 8.5 -4t3.5 -9q0 -6 -3.5 -9.5t-8.5 -3.5h-46l90 -768l86 604q5 33 5 61q0 55 -14.5 76t-42.5 25l-14 4q-3 4 -3 10q0 7 2.5 10.5t7.5 3.5h151q6 0 9.5 -4t3.5 -10q0 -5 -2.5 -8t-10.5 -4q-14 -4 -24 -21q-28 -47 -39 -119l-149 -1052 q-16 -114 -68 -170.5t-106 -56.5q-43 0 -76 37.5t-33 98.5q0 52 25.5 80.5t59.5 28.5q33 0 57.5 -26t24.5 -64q0 -59 -52 -92q-14 -9 -14 -18q0 -6 5.5 -10.5t16.5 -4.5q37 0 72 41q47 56 67 179l21 122h-108l-124 1047h-46q-10 6 -10 13zM207 1153l12 319h199l-182 -323 q-7 -13 -17 -13l-8 3q-4 6 -4 14z" />
<glyph unicode="&#xfe;" horiz-adv-x="580" d="M13 -357q0 8 3.5 11.5t9.5 3.5h36v1823h-36q-8 0 -10.5 2.5t-2.5 7.5q0 8 3 10.5t10 2.5h202v-509q23 45 49 67.5t55 22.5q70 0 117 -78q76 -125 76 -447q0 -272 -28 -378t-83 -159q-36 -35 -78 -35q-55 0 -95 73v-403h47q12 0 15.5 -3.5t3.5 -11.5t-3.5 -11.5 t-15.5 -3.5h-262q-7 0 -10 3.5t-3 11.5zM241 206q0 -100 24 -137q16 -25 41 -25q17 0 26 13q14 20 14 71v846q0 39 -13 57q-10 13 -26 13q-22 0 -40 -27q-26 -37 -26 -114v-697z" />
<glyph unicode="&#xff;" horiz-adv-x="520" d="M-8 1060q0 6 10 13h268q5 0 8.5 -4t3.5 -9q0 -6 -3.5 -9.5t-8.5 -3.5h-46l90 -768l86 604q5 33 5 61q0 55 -14.5 76t-42.5 25l-14 4q-3 4 -3 10q0 7 2.5 10.5t7.5 3.5h151q6 0 9.5 -4t3.5 -10q0 -5 -2.5 -8t-10.5 -4q-14 -4 -24 -21q-28 -47 -39 -119l-149 -1052 q-16 -114 -68 -170.5t-106 -56.5q-43 0 -76 37.5t-33 98.5q0 52 25.5 80.5t59.5 28.5q33 0 57.5 -26t24.5 -64q0 -59 -52 -92q-14 -9 -14 -18q0 -6 5.5 -10.5t16.5 -4.5q37 0 72 41q47 56 67 179l21 122h-108l-124 1047h-46q-10 6 -10 13zM85 1305q0 78 25 112q18 26 49 26 q29 0 47 -25q23 -33 23 -113q0 -78 -23 -109q-16 -23 -48 -23t-50 24q-23 32 -23 108zM298 1306q0 77 25 112q18 25 48 25t47 -24q22 -31 22 -106q0 -84 -23 -118q-18 -25 -49 -25q-29 0 -47 24q-23 34 -23 112z" />
<glyph unicode="&#x152;" horiz-adv-x="918" d="M30 536v407q0 312 104 464q72 104 173 104q12 0 54 -5q16 -2 23 -2h495v-561q-6 -8 -11 -8q-7 0 -9.5 4t-2.5 27q0 72 -36.5 246t-87.5 235q-27 32 -68 32h-83v-707q60 7 95 60q47 71 47 230v78q5 7 11 7t12 -7v-749q0 -6 -3.5 -9.5t-8.5 -3.5t-8 3.5t-3 9.5v61 q0 166 -50 243q-34 51 -92 54v-723h47q85 0 142 134q76 178 86 424l3 35q3 5 9 5l7 -3q4 -4 4 -10v-611h-466q-5 0 -15 -1q-55 -6 -78 -6q-51 0 -107 32.5t-94 94.5q-30 47 -59.5 152.5t-29.5 263.5zM248 93q0 -38 18 -60q14 -16 43 -16q27 0 44 20q23 28 23 67v1288 q0 50 -20 75q-15 19 -42 19q-28 0 -47 -23t-19 -71v-1299z" />
<glyph unicode="&#x153;" horiz-adv-x="811" d="M39 433v247q0 217 80 325q59 80 151 80q38 0 70 -14.5t74 -54.5q64 69 139 69q104 0 163.5 -117.5t59.5 -317.5v-117h-280v-421q0 -50 17.5 -72t45.5 -22q39 0 78.5 34t62.5 99q43 123 43 241v41q0 14 6 22q4 5 10 5q7 0 11 -6q5 -8 5 -41q0 -185 -61.5 -305t-169.5 -120 q-36 0 -63 13t-76 57q-70 -70 -142 -70q-108 0 -166 122.5t-58 322.5zM217 78q0 -28 16 -48q12 -13 34 -13t37 15t15 37v935q0 26 -14.5 42t-38.5 16q-21 0 -35 -15t-14 -36v-933zM496 558h101v424q0 50 -14 67q-9 13 -34 13t-39 -15.5t-14 -47.5v-441z" />
<glyph unicode="&#x178;" horiz-adv-x="657" d="M1 1491q0 7 3 10t8 3h325q11 -7 11 -12q0 -7 -11 -14h-80l155 -683l116 532q7 30 7 56q0 38 -12 61.5t-33 31.5l-33 4q-6 3 -6 11q0 7 11 13h162q11 0 15 -2l3 -5q0 -7 -12 -15q-50 -29 -69 -115l-138 -621v-720h79q5 0 8.5 -3.5t3.5 -9.5t-3.5 -9.5t-8.5 -3.5h-369 q-5 0 -8 3.5t-3 9.5t3 9.5t8 3.5h83v720l-164 732h-40q-5 0 -8 3.5t-3 9.5zM135 1738q0 78 25 112q18 26 49 26q29 0 47 -25q23 -33 23 -113q0 -78 -23 -109q-16 -23 -48 -23t-50 24q-23 32 -23 108zM348 1739q0 77 25 112q18 25 48 25t47 -24q22 -31 22 -106 q0 -84 -23 -118q-18 -25 -49 -25q-29 0 -47 24q-23 34 -23 112z" />
<glyph unicode="&#x2c6;" horiz-adv-x="682" d="M191 1144q0 2 1 4l96 320h103l107 -337h-136l-74 239l-75 -228q-1 -4 -4 -6t-6 -2q-5 0 -8.5 3t-3.5 7z" />
<glyph unicode="&#x2dc;" horiz-adv-x="682" d="M147 1220q0 132 40 186q29 41 83 41q46 0 77 -36q8 -8 45 -70q23 -38 49 -38q19 0 33 17.5t19 80.5q2 25 5 29.5t8 4.5t7 -4q5 -9 5 -37q0 -133 -39 -187q-27 -39 -79 -39q-38 0 -61.5 16.5t-49 62.5t-36 55t-26.5 9q-20 0 -31 -14q-15 -20 -21 -77q-3 -31 -6 -36.5 t-8 -5.5q-6 0 -9 6q-5 9 -5 36z" />
<glyph unicode="&#x2000;" horiz-adv-x="954" />
<glyph unicode="&#x2001;" horiz-adv-x="1908" />
<glyph unicode="&#x2002;" horiz-adv-x="954" />
<glyph unicode="&#x2003;" horiz-adv-x="1908" />
<glyph unicode="&#x2004;" horiz-adv-x="636" />
<glyph unicode="&#x2005;" horiz-adv-x="477" />
<glyph unicode="&#x2006;" horiz-adv-x="318" />
<glyph unicode="&#x2007;" horiz-adv-x="318" />
<glyph unicode="&#x2008;" horiz-adv-x="238" />
<glyph unicode="&#x2009;" horiz-adv-x="381" />
<glyph unicode="&#x200a;" horiz-adv-x="106" />
<glyph unicode="&#x2010;" horiz-adv-x="362" d="M55 464v143h253v-143h-253z" />
<glyph unicode="&#x2011;" horiz-adv-x="362" d="M55 464v143h253v-143h-253z" />
<glyph unicode="&#x2012;" horiz-adv-x="362" d="M55 464v143h253v-143h-253z" />
<glyph unicode="&#x2013;" horiz-adv-x="1024" d="M-12 483v61h1048v-61h-1048z" />
<glyph unicode="&#x2014;" horiz-adv-x="2048" d="M-12 489v60h2072v-60h-2072z" />
<glyph unicode="&#x2018;" horiz-adv-x="276" d="M36 1139q0 90 42.5 189.5t103.5 164.5q23 23 29 23q9 -6 9 -11q0 -8 -8 -19q-57 -73 -82 -129.5t-25 -102.5q0 -11 2 -15l4 -3l8 2q10 3 18 3q41 0 66 -28.5t25 -85.5q0 -61 -27.5 -93t-66.5 -32q-38 0 -68 36t-30 101z" />
<glyph unicode="&#x2019;" horiz-adv-x="276" d="M33 1386q0 60 29 95t64 35q38 0 68.5 -37.5t30.5 -105.5q0 -145 -104 -292q-53 -76 -72 -76q-10 6 -10 11q0 6 28 40q46 55 65 105.5t22 114.5q-24 -3 -30 -3q-38 0 -64.5 30t-26.5 83z" />
<glyph unicode="&#x201a;" horiz-adv-x="276" d="M42 90q0 62 29 96.5t66 34.5q36 0 66 -38.5t30 -112.5q0 -128 -96 -270q-63 -93 -81 -93q-5 0 -12 9q0 5 8 14q52 57 88 133q22 46 23 116q-18 -4 -29 -4q-39 0 -65.5 30t-26.5 85z" />
<glyph unicode="&#x201c;" horiz-adv-x="512" d="M33 1139q0 90 42.5 189.5t103.5 164.5q23 23 29 23q9 -6 9 -11q0 -8 -8 -19q-57 -73 -82 -129.5t-25 -102.5q0 -11 2 -15l4 -3l8 2q10 3 18 3q41 0 66 -28.5t25 -85.5q0 -61 -27.5 -93t-66.5 -32q-38 0 -68 36t-30 101zM270 1139q0 90 42.5 189.5t103.5 164.5 q23 23 29 23q9 -6 9 -11q0 -8 -8 -19q-57 -73 -82 -129.5t-25 -102.5q0 -11 2 -15l4 -3l8 2q10 3 18 3q41 0 66 -28.5t25 -85.5q0 -61 -27.5 -93t-66.5 -32q-38 0 -68 36t-30 101z" />
<glyph unicode="&#x201d;" horiz-adv-x="512" d="M35 1386q0 60 29 95t64 35q38 0 68.5 -37.5t30.5 -105.5q0 -145 -104 -292q-53 -76 -72 -76q-10 6 -10 11q0 6 28 40q46 55 65 105.5t22 114.5q-24 -3 -30 -3q-38 0 -64.5 30t-26.5 83zM268 1386q0 60 29 95t64 35q38 0 68.5 -37.5t30.5 -105.5q0 -145 -104 -292 q-53 -76 -72 -76q-10 6 -10 11q0 6 28 40q46 55 65 105.5t22 114.5q-24 -3 -30 -3q-38 0 -64.5 30t-26.5 83z" />
<glyph unicode="&#x201e;" horiz-adv-x="516" d="M36 90q0 62 29 96.5t66 34.5q36 0 66 -38.5t30 -112.5q0 -128 -96 -270q-63 -93 -81 -93q-5 0 -12 9q0 5 8 14q52 57 88 133q22 46 23 116q-18 -4 -29 -4q-39 0 -65.5 30t-26.5 85zM278 90q0 62 29 96.5t66 34.5q36 0 66 -38.5t30 -112.5q0 -128 -96 -270 q-63 -93 -81 -93q-5 0 -12 9q0 5 8 14q52 57 88 133q22 46 23 116q-18 -4 -29 -4q-39 0 -65.5 30t-26.5 85z" />
<glyph unicode="&#x2022;" horiz-adv-x="717" d="M112 677q0 103 73.5 177t177.5 74t177 -73.5t73 -176.5q0 -105 -73 -178.5t-176 -73.5q-105 0 -178.5 73.5t-73.5 177.5z" />
<glyph unicode="&#x2026;" horiz-adv-x="1152" d="M104 100q0 59 26 89t64 30t63 -28.5t25 -85.5t-26 -87t-63 -30q-39 0 -64 28.5t-25 83.5zM487 103q0 58 25.5 87t61.5 29q39 0 65 -30t26 -86t-25 -85.5t-64 -29.5q-40 0 -64.5 28.5t-24.5 86.5zM870 100q0 57 26.5 88t63.5 31q38 0 63 -29.5t25 -86.5t-25.5 -86 t-64.5 -29t-63.5 28t-24.5 84z" />
<glyph unicode="&#x202f;" horiz-adv-x="381" />
<glyph unicode="&#x2039;" horiz-adv-x="342" d="M25 564l248 547h25l-92 -547l92 -549h-25z" />
<glyph unicode="&#x203a;" horiz-adv-x="342" d="M28 12l96 551l-96 546h23l249 -546l-249 -551h-23z" />
<glyph unicode="&#x205f;" horiz-adv-x="477" />
<glyph unicode="&#x20ac;" d="M18 653v54h72v114h-72v53h74q22 644 266 644q43 0 63.5 -18.5t47.5 -65.5l51 82h10v-512q0 -15 -14 -15q-12 0 -12 12l-2 56q-4 145 -40.5 289.5t-94.5 144.5q-34 0 -58 -35.5t-24 -87.5v-494h147v-53h-147v-114h147v-54h-147v-526q0 -49 22 -80t53 -31q73 0 112.5 105.5 t39.5 294.5v65q0 21 16 21q15 0 15 -21v-59q0 -217 -42 -327.5t-147 -110.5q-154 0 -207.5 204.5t-56.5 464.5h-72z" />
<glyph unicode="&#x2122;" horiz-adv-x="1920" d="M81 1153v201h664v-201h-39q-11 81 -46.5 115.5t-97.5 34.5h-55v-558q0 -53 16 -71t51 -18h36v-30h-393v30h37q36 0 51.5 18t15.5 71v558h-64q-52 0 -81 -27q-46 -42 -55 -123h-40zM813 626v30q50 0 71.5 22t21.5 85v471q0 54 -15.5 72t-49.5 18h-28v30h293l210 -476 l210 476h293v-30h-27q-35 0 -50.5 -18t-15.5 -72v-489q0 -53 15.5 -71t50.5 -18h27v-30h-379v30h35q35 0 50.5 18t15.5 71v506l-276 -625h-29l-274 620v-483q0 -59 12 -77q21 -30 65 -30h22v-30h-248z" />
<glyph unicode="&#xe000;" horiz-adv-x="1075" d="M0 0v1075h1075v-1075h-1075z" />
</font>
</defs>
</svg>
